<svg width="164" height="58" viewBox="0 0 164 58" fill="none" xmlns="http://www.w3.org/2000/svg">
<path d="M98.5002 48.2373C98.0966 43.7163 92.21 42.1982 88.4313 42.868C86.0318 43.2922 83.8565 44.8661 81.7373 45.9712C79.2369 47.2773 76.7029 48.5275 74.0903 49.5992C68.9886 51.6866 63.5728 53.1936 58.0226 53.2048C52.2593 53.2048 46.5184 51.7089 41.3157 49.2754C35.5861 46.6075 30.4058 42.935 25.5844 38.894C23.4091 37.0745 20.2584 40.1889 22.4448 42.0196C30.7983 49.0187 40.3514 55.2141 51.3174 57.0336C62.5076 58.8978 72.9915 55.415 82.8586 50.3694C84.1929 49.6885 85.5272 48.9741 86.8503 48.2596C87.8034 47.7461 88.7004 47.2326 89.788 47.1322C90.7972 47.0429 91.6942 47.1768 92.6585 47.5787C93.0397 47.735 93.4658 47.9359 93.7909 48.1927C93.9591 48.3266 94.0937 48.5945 94.06 48.2485C94.1722 49.4317 95.0019 50.4587 96.2801 50.4587C97.4014 50.4587 98.6124 49.4429 98.5002 48.2485V48.2373Z" fill="white"/>
<path d="M0 43.1518V26.5592L0.0566275 6.90869H6.49356V15.2333C6.49356 15.9506 6.49356 16.6868 6.43693 17.423C6.39918 18.178 6.34252 18.9331 6.22926 19.7259C6.13487 20.5187 6.02163 21.2927 5.88949 22.0666C5.77623 22.8594 5.64413 23.6334 5.51199 24.4073H6.53129C7.04096 22.5951 7.66389 21.0473 8.41895 19.7637C9.17401 18.4801 10.1179 17.4796 11.2693 16.8C12.4208 16.1205 13.8743 15.7807 15.6109 15.7807C18.7067 15.7807 21.0285 16.8567 22.5764 19.0275C24.1243 21.1983 24.8982 24.4639 24.8982 28.8622V43.1518H18.367V29.7683C18.367 26.8424 17.9328 24.6716 17.0456 23.2747C16.1584 21.8778 14.8559 21.1794 13.1193 21.1794C11.7224 21.1794 10.552 21.6136 9.62708 22.4819C8.68325 23.3502 7.96593 24.5017 7.43739 25.9552C6.90884 27.4087 6.56907 29.0132 6.43693 30.7876V43.1518H0Z" fill="white"/>
<path d="M42.3209 40.3399C39.697 40.3399 37.3941 39.7924 35.3931 38.6976C33.3922 37.6027 31.8443 36.0171 30.6929 33.9218C29.5603 31.8265 28.9751 29.2593 28.9751 26.1824C28.9751 23.1055 29.5602 20.5005 30.7117 18.4241C31.8632 16.3477 33.4489 14.7998 35.4687 13.7805C37.4696 12.7611 39.7536 12.2515 42.302 12.2515C44.8503 12.2515 47.191 12.78 49.1919 13.8371C51.1928 14.8942 52.7785 16.4609 53.9489 18.5563C55.1003 20.6516 55.6855 23.2376 55.6855 26.3523C55.6855 29.4669 55.1003 32.0719 53.93 34.1483C52.7596 36.2059 51.1551 37.7538 49.1353 38.792C47.1155 39.8302 44.8315 40.3587 42.3209 40.3587V40.3399ZM42.5851 35.3942C44.0197 35.3942 45.209 35.0544 46.1906 34.3937C47.1721 33.733 47.9272 32.7326 48.4558 31.4112C49.0032 30.0899 49.2674 28.5042 49.2674 26.6543C49.2674 24.71 48.9843 23.0489 48.418 21.6709C47.8517 20.2929 47.04 19.2358 46.0018 18.4807C44.9447 17.7257 43.6611 17.3481 42.1132 17.3481C40.7541 17.3481 39.5648 17.6879 38.5644 18.3486C37.5639 19.0093 36.79 19.9909 36.2426 21.2934C35.6952 22.5958 35.4309 24.1815 35.4309 26.088C35.4309 29.0894 36.0727 31.3735 37.3374 32.978C38.621 34.5825 40.3577 35.3753 42.5662 35.3753L42.5851 35.3942Z" fill="white"/>
<path d="M74.4868 35.6382C71.863 35.6382 69.5601 35.0908 67.5591 33.9959C65.5582 32.9011 64.0103 31.3155 62.8588 29.2202C61.7262 27.1248 61.1411 24.5576 61.1411 21.4807C61.1411 18.4039 61.7263 15.7989 62.8777 13.7225C64.0292 11.646 65.6149 10.0981 67.6347 9.07881C69.6356 8.05948 71.9197 7.5498 74.468 7.5498C77.0163 7.5498 79.357 8.07835 81.3579 9.13544C83.3589 10.1925 84.9445 11.7593 86.1148 13.8546C87.2663 15.9499 87.8515 18.536 87.8515 21.6506C87.8515 24.7653 87.2663 27.3702 86.096 29.4467C84.9256 31.5042 83.3211 33.0521 81.3013 34.0903C79.2815 35.1285 76.9974 35.6571 74.4868 35.6571V35.6382ZM74.7511 30.6925C76.1858 30.6925 77.375 30.3527 78.3566 29.6921C79.3382 29.0314 80.0932 28.0309 80.6217 26.7096C81.1691 25.3882 81.4335 23.8026 81.4335 21.9527C81.4335 20.0084 81.1503 18.3472 80.584 16.9692C80.0177 15.5912 79.206 14.5341 78.1678 13.7791C77.1107 13.024 75.8271 12.6465 74.2792 12.6465C72.9201 12.6465 71.7309 12.9863 70.7304 13.6469C69.7299 14.3076 68.956 15.2892 68.4086 16.5917C67.8611 17.8942 67.5969 19.4798 67.5969 21.3864C67.5969 24.3877 68.2387 26.6718 69.5034 28.2763C70.787 29.8808 72.5237 30.6736 74.7322 30.6736L74.7511 30.6925Z" fill="white"/>
<path d="M93.6279 51.6282L93.5713 29.9768L93.6279 16.4423H99.0455L98.9889 23.6342L99.8005 23.7286C100.178 22.0297 100.744 20.5951 101.481 19.4059C102.236 18.2355 103.217 17.3295 104.425 16.7065C105.633 16.0836 107.03 15.7627 108.635 15.7627C111.051 15.7627 113.09 16.3667 114.77 17.556C116.431 18.7452 117.696 20.4063 118.545 22.5394C119.394 24.6725 119.829 27.1264 119.829 29.9201C119.829 32.7139 119.432 34.9413 118.658 37.0366C117.884 39.1319 116.676 40.7931 115.091 42.0201C113.505 43.247 111.504 43.8511 109.107 43.8511C107.332 43.8511 105.86 43.4924 104.671 42.794C103.482 42.0956 102.5 41.1517 101.764 39.9625C101.009 38.7733 100.405 37.3953 99.9327 35.8285L99.0078 35.7719C99.2532 36.7157 99.4419 37.6784 99.574 38.66C99.7062 39.6227 99.8194 40.5854 99.9327 41.5293C100.027 42.4731 100.084 43.3603 100.084 44.2097V51.6094H93.6468L93.6279 51.6282ZM106.955 38.6034C108.276 38.6034 109.39 38.2259 110.296 37.4708C111.202 36.7157 111.9 35.6964 112.41 34.4128C112.92 33.1292 113.184 31.6002 113.184 29.8635C113.184 28.1269 112.92 26.5601 112.41 25.2765C111.9 23.974 111.164 22.9736 110.22 22.2563C109.277 21.5389 108.144 21.1803 106.86 21.1803C105.728 21.1803 104.746 21.4446 103.878 21.9542C103.01 22.4639 102.292 23.1435 101.726 23.974C101.16 24.8046 100.744 25.7107 100.48 26.6545C100.197 27.6172 100.065 28.5233 100.065 29.4105V30.3354C100.065 30.9772 100.14 31.6757 100.329 32.4307C100.499 33.1858 100.763 33.922 101.141 34.6582C101.518 35.3944 101.99 36.055 102.538 36.6213C103.104 37.2065 103.746 37.6784 104.482 38.056C105.218 38.4335 106.049 38.6223 106.955 38.6223V38.6034Z" fill="white"/>
<path d="M125.755 43.1521V6.89014H132.136V43.1521H125.755Z" fill="white"/>
<path d="M153.807 43.492C151.655 43.8696 149.71 43.8885 147.936 43.5676C146.162 43.2467 144.614 42.6048 143.274 41.6421C141.933 40.6794 140.82 39.4524 139.97 37.9234C139.121 36.3944 138.498 34.5823 138.12 32.4681C137.743 30.3539 137.705 28.4285 137.969 26.5786C138.233 24.7287 138.8 23.0676 139.687 21.5763C140.574 20.0851 141.745 18.8581 143.217 17.8954C144.689 16.9327 146.426 16.272 148.446 15.9133C150.466 15.5547 152.183 15.5735 153.807 15.9133C155.449 16.272 156.884 16.9893 158.111 18.0841C159.338 19.179 160.376 20.6136 161.206 22.388C162.037 24.1624 162.622 26.2955 162.962 28.7872L142.405 32.5247L141.763 28.8627L158.582 25.7858L156.676 28.202C156.544 26.2577 156.129 24.7098 155.411 23.5772C154.713 22.4446 153.826 21.6707 152.768 21.2365C151.711 20.8212 150.579 20.708 149.371 20.9345C148.03 21.1799 146.917 21.7462 146.011 22.6334C145.123 23.5395 144.501 24.7098 144.18 26.1633C143.859 27.6168 143.859 29.3157 144.199 31.26C144.708 34.167 145.728 36.2434 147.257 37.4515C148.786 38.6596 150.692 39.0749 152.976 38.6785C153.977 38.5086 154.807 38.2255 155.449 37.8479C156.091 37.4704 156.6 37.0362 156.997 36.5077C157.393 35.9791 157.676 35.4317 157.865 34.8466C158.054 34.2614 158.186 33.6762 158.262 33.1099L164 33.3364C163.925 34.6389 163.66 35.8093 163.245 36.8852C162.83 37.9612 162.207 38.9428 161.376 39.83C160.546 40.7172 159.507 41.4722 158.28 42.0574C157.035 42.6615 155.543 43.1145 153.807 43.4165V43.492Z" fill="white"/>
<path d="M6.47502 0H0.0380859V6.88996H6.47502V0Z" fill="white"/>
</svg>
