<svg width="399" height="140" viewBox="0 0 399 140" fill="none" xmlns="http://www.w3.org/2000/svg">
<rect width="308.591" height="63.0455" rx="13.2727" fill="#E7E3E3"/>
<path d="M53.7905 9.63635V17.6364H52.6812L48.6147 11.7692H48.5405V17.6364H47.3335V9.63635H48.4507L52.521 15.5114H52.5952V9.63635H53.7905ZM58.0435 17.7574C57.4523 17.7574 56.9432 17.6311 56.5161 17.3785C56.0916 17.1233 55.7635 16.7653 55.5317 16.3043C55.3026 15.8408 55.188 15.2978 55.188 14.6754C55.188 14.0608 55.3026 13.5192 55.5317 13.0504C55.7635 12.5817 56.0864 12.2158 56.5005 11.9528C56.9172 11.6897 57.4041 11.5582 57.9614 11.5582C58.3 11.5582 58.6281 11.6142 58.9458 11.7262C59.2635 11.8382 59.5487 12.014 59.8013 12.2535C60.0539 12.4931 60.2531 12.8043 60.3989 13.1871C60.5448 13.5673 60.6177 14.0296 60.6177 14.5739V14.9879H55.8481V14.1129H59.4731C59.4731 13.8056 59.4106 13.5335 59.2856 13.2965C59.1606 13.0569 58.9849 12.8681 58.7583 12.7301C58.5343 12.5921 58.2713 12.5231 57.9692 12.5231C57.6411 12.5231 57.3547 12.6038 57.1099 12.7653C56.8677 12.9241 56.6802 13.1324 56.5474 13.3903C56.4172 13.6455 56.3521 13.9228 56.3521 14.2223V14.9059C56.3521 15.3069 56.4224 15.6481 56.563 15.9293C56.7062 16.2106 56.9054 16.4254 57.1606 16.5739C57.4159 16.7197 57.714 16.7926 58.0552 16.7926C58.2765 16.7926 58.4784 16.7614 58.6606 16.6989C58.8429 16.6337 59.0005 16.5374 59.1333 16.4098C59.2661 16.2822 59.3677 16.1246 59.438 15.9371L60.5435 16.1364C60.4549 16.4619 60.2961 16.747 60.0669 16.9918C59.8403 17.234 59.5552 17.4228 59.2114 17.5582C58.8703 17.691 58.481 17.7574 58.0435 17.7574ZM63.2036 17.6364L61.438 11.6364H62.645L63.8208 16.0426H63.8794L65.0591 11.6364H66.2661L67.438 16.0231H67.4966L68.6646 11.6364H69.8716L68.1099 17.6364H66.9185L65.6997 13.3043H65.6099L64.3911 17.6364H63.2036ZM73.5903 10.6754V9.63635H79.7817V10.6754H77.2856V17.6364H76.0825V10.6754H73.5903ZM81.9858 17.7692C81.6056 17.7692 81.2619 17.6989 80.9546 17.5582C80.6473 17.415 80.4038 17.208 80.2241 16.9371C80.047 16.6663 79.9585 16.3343 79.9585 15.941C79.9585 15.6025 80.0236 15.3239 80.1538 15.1051C80.284 14.8864 80.4598 14.7132 80.6812 14.5856C80.9025 14.458 81.1499 14.3616 81.4233 14.2965C81.6968 14.2314 81.9754 14.1819 82.2593 14.1481C82.6187 14.1064 82.9103 14.0726 83.1343 14.0465C83.3582 14.0179 83.521 13.9723 83.6226 13.9098C83.7241 13.8473 83.7749 13.7457 83.7749 13.6051V13.5778C83.7749 13.2366 83.6785 12.9723 83.4858 12.7848C83.2957 12.5973 83.0119 12.5035 82.6343 12.5035C82.241 12.5035 81.9312 12.5908 81.7046 12.7653C81.4806 12.9371 81.3257 13.1285 81.2397 13.3395L80.1421 13.0895C80.2723 12.7249 80.4624 12.4306 80.7124 12.2067C80.965 11.9801 81.2554 11.816 81.5835 11.7145C81.9116 11.6103 82.2567 11.5582 82.6187 11.5582C82.8582 11.5582 83.1121 11.5869 83.3804 11.6442C83.6512 11.6989 83.9038 11.8004 84.1382 11.9489C84.3752 12.0973 84.5692 12.3095 84.7202 12.5856C84.8713 12.859 84.9468 13.2145 84.9468 13.652V17.6364H83.8062V16.816H83.7593C83.6838 16.9671 83.5705 17.1155 83.4194 17.2614C83.2684 17.4072 83.0744 17.5283 82.8374 17.6246C82.6004 17.721 82.3166 17.7692 81.9858 17.7692ZM82.2397 16.8317C82.5627 16.8317 82.8387 16.7679 83.0679 16.6403C83.2996 16.5127 83.4754 16.346 83.5952 16.1403C83.7176 15.9319 83.7788 15.7093 83.7788 15.4723V14.6989C83.7371 14.7405 83.6564 14.7796 83.5366 14.816C83.4194 14.8499 83.2853 14.8798 83.1343 14.9059C82.9832 14.9293 82.8361 14.9515 82.6929 14.9723C82.5496 14.9905 82.4299 15.0061 82.3335 15.0192C82.1069 15.0478 81.8999 15.096 81.7124 15.1637C81.5275 15.2314 81.3791 15.3291 81.2671 15.4567C81.1577 15.5817 81.103 15.7483 81.103 15.9567C81.103 16.2457 81.2098 16.4645 81.4233 16.6129C81.6369 16.7587 81.909 16.8317 82.2397 16.8317ZM90.9985 13.1012L89.9399 13.2887C89.8957 13.1533 89.8254 13.0244 89.729 12.902C89.6353 12.7796 89.5076 12.6793 89.3462 12.6012C89.1847 12.5231 88.9829 12.484 88.7407 12.484C88.41 12.484 88.134 12.5582 87.9126 12.7067C87.6912 12.8525 87.5806 13.0413 87.5806 13.2731C87.5806 13.4736 87.6548 13.6351 87.8032 13.7574C87.9517 13.8798 88.1912 13.9801 88.522 14.0582L89.4751 14.277C90.0272 14.4046 90.4386 14.6012 90.7095 14.8668C90.9803 15.1324 91.1157 15.4775 91.1157 15.902C91.1157 16.2614 91.0116 16.5817 90.8032 16.8629C90.5975 17.1416 90.3097 17.3603 89.9399 17.5192C89.5728 17.678 89.147 17.7574 88.6626 17.7574C87.9907 17.7574 87.4425 17.6142 87.0181 17.3278C86.5936 17.0387 86.3332 16.6285 86.2368 16.0973L87.3657 15.9254C87.436 16.2197 87.5806 16.4423 87.7993 16.5934C88.0181 16.7418 88.3032 16.816 88.6548 16.816C89.0376 16.816 89.3436 16.7366 89.5728 16.5778C89.8019 16.4163 89.9165 16.2197 89.9165 15.9879C89.9165 15.8004 89.8462 15.6429 89.7056 15.5153C89.5675 15.3877 89.3553 15.2913 89.0688 15.2262L88.0532 15.0035C87.4933 14.8759 87.0793 14.6728 86.811 14.3942C86.5454 14.1155 86.4126 13.7627 86.4126 13.3356C86.4126 12.9814 86.5116 12.6715 86.7095 12.4059C86.9074 12.1403 87.1808 11.9332 87.5298 11.7848C87.8787 11.6337 88.2785 11.5582 88.729 11.5582C89.3774 11.5582 89.8879 11.6989 90.2603 11.9801C90.6327 12.2587 90.8787 12.6324 90.9985 13.1012ZM93.4741 15.6012L93.4663 14.1754H93.6694L96.0601 11.6364H97.4585L94.7319 14.527H94.5483L93.4741 15.6012ZM92.3999 17.6364V9.63635H93.5679V17.6364H92.3999ZM96.189 17.6364L94.0405 14.7848L94.8452 13.9684L97.6226 17.6364H96.189Z" fill="black"/>
<path d="M280.889 12.0114V14.6364H280.218V10.2727H280.866V10.9545H280.923C281.025 10.7329 281.18 10.5549 281.389 10.4204C281.597 10.2841 281.866 10.2159 282.195 10.2159C282.491 10.2159 282.749 10.2765 282.971 10.3977C283.193 10.517 283.365 10.6989 283.488 10.9432C283.611 11.1856 283.673 11.4924 283.673 11.8636V14.6364H283.002V11.9091C283.002 11.5663 282.913 11.2992 282.735 11.1079C282.557 10.9148 282.313 10.8182 282.002 10.8182C281.788 10.8182 281.597 10.8646 281.428 10.9574C281.262 11.0502 281.13 11.1856 281.033 11.3636C280.937 11.5417 280.889 11.7576 280.889 12.0114ZM286.671 14.7273C286.277 14.7273 285.931 14.6335 285.634 14.446C285.338 14.2585 285.107 13.9962 284.94 13.6591C284.776 13.322 284.693 12.928 284.693 12.4773C284.693 12.0227 284.776 11.6259 284.94 11.2869C285.107 10.9479 285.338 10.6846 285.634 10.4971C285.931 10.3096 286.277 10.2159 286.671 10.2159C287.064 10.2159 287.409 10.3096 287.705 10.4971C288.002 10.6846 288.233 10.9479 288.398 11.2869C288.564 11.6259 288.648 12.0227 288.648 12.4773C288.648 12.928 288.564 13.322 288.398 13.6591C288.233 13.9962 288.002 14.2585 287.705 14.446C287.409 14.6335 287.064 14.7273 286.671 14.7273ZM286.671 14.125C286.97 14.125 287.216 14.0483 287.409 13.8949C287.602 13.7415 287.745 13.5398 287.838 13.2898C287.931 13.0398 287.977 12.7689 287.977 12.4773C287.977 12.1856 287.931 11.9138 287.838 11.6619C287.745 11.41 287.602 11.2064 287.409 11.0511C287.216 10.8958 286.97 10.8182 286.671 10.8182C286.371 10.8182 286.125 10.8958 285.932 11.0511C285.739 11.2064 285.596 11.41 285.503 11.6619C285.41 11.9138 285.364 12.1856 285.364 12.4773C285.364 12.7689 285.41 13.0398 285.503 13.2898C285.596 13.5398 285.739 13.7415 285.932 13.8949C286.125 14.0483 286.371 14.125 286.671 14.125ZM290.511 14.6364L289.182 10.2727H289.886L290.83 13.6136H290.875L291.807 10.2727H292.523L293.443 13.6023H293.489L294.432 10.2727H295.136L293.807 14.6364H293.148L292.193 11.2841H292.125L291.171 14.6364H290.511Z" fill="#5C5B5B"/>
<path d="M6.63623 23.2273C6.63623 19.5621 9.60743 16.5909 13.2726 16.5909H30.9588C34.6239 16.5909 37.5951 19.5621 37.5951 23.2273V40.9135C37.5951 44.5786 34.6239 47.5498 30.9588 47.5498H13.2726C9.60743 47.5498 6.63623 44.5786 6.63623 40.9135V23.2273Z" fill="#F0E5F6"/>
<path d="M24.3089 34.9777C24.2602 34.4325 23.5504 34.2495 23.0947 34.3302C22.8054 34.3814 22.5431 34.5712 22.2875 34.7045C21.986 34.862 21.6804 35.0127 21.3654 35.1419C20.7501 35.3937 20.0971 35.5754 19.4278 35.5767C18.7328 35.5767 18.0405 35.3964 17.4131 35.1029C16.7222 34.7812 16.0975 34.3383 15.5161 33.851C15.2538 33.6316 14.8738 34.0072 15.1375 34.2279C16.1448 35.0719 17.2968 35.819 18.6192 36.0385C19.9686 36.2633 21.2328 35.8433 22.4227 35.2348C22.5836 35.1527 22.7445 35.0666 22.9041 34.9804C23.019 34.9185 23.1272 34.8566 23.2583 34.8445C23.38 34.8337 23.4882 34.8498 23.6045 34.8983C23.6504 34.9171 23.7018 34.9414 23.741 34.9723C23.7613 34.9885 23.7775 35.0208 23.7735 34.9791C23.787 35.1218 23.8871 35.2456 24.0412 35.2456C24.1764 35.2456 24.3224 35.1231 24.3089 34.9791V34.9777Z" fill="#313842"/>
<path d="M12.4336 34.3623V32.3615L12.4404 29.9918H13.2166V30.9957C13.2166 31.0822 13.2166 31.1709 13.2098 31.2597C13.2053 31.3508 13.1984 31.4418 13.1848 31.5374C13.1734 31.633 13.1597 31.7264 13.1438 31.8197C13.1301 31.9153 13.1142 32.0086 13.0983 32.102H13.2212C13.2827 31.8834 13.3578 31.6968 13.4488 31.542C13.5399 31.3872 13.6537 31.2666 13.7926 31.1846C13.9314 31.1027 14.1067 31.0617 14.3161 31.0617C14.6894 31.0617 14.9694 31.1914 15.1561 31.4532C15.3427 31.715 15.436 32.1088 15.436 32.6392V34.3623H14.6484V32.7484C14.6484 32.3956 14.5961 32.1338 14.4891 31.9654C14.3821 31.7969 14.2251 31.7127 14.0156 31.7127C13.8472 31.7127 13.7061 31.7651 13.5945 31.8698C13.4807 31.9745 13.3942 32.1133 13.3305 32.2886C13.2667 32.4639 13.2258 32.6574 13.2098 32.8714V34.3623H12.4336Z" fill="#313842"/>
<path d="M17.5371 34.0234C17.2207 34.0234 16.943 33.9574 16.7017 33.8253C16.4604 33.6933 16.2737 33.5021 16.1349 33.2494C15.9983 32.9968 15.9277 32.6872 15.9277 32.3161C15.9277 31.9451 15.9983 31.631 16.1372 31.3806C16.276 31.1302 16.4672 30.9435 16.7108 30.8206C16.9521 30.6977 17.2275 30.6362 17.5348 30.6362C17.8421 30.6362 18.1244 30.7 18.3657 30.8274C18.6069 30.9549 18.7982 31.1438 18.9393 31.3965C19.0781 31.6492 19.1487 31.961 19.1487 32.3366C19.1487 32.7122 19.0781 33.0264 18.937 33.2767C18.7959 33.5249 18.6024 33.7115 18.3588 33.8367C18.1153 33.9619 17.8398 34.0257 17.5371 34.0257V34.0234ZM17.569 33.427C17.742 33.427 17.8854 33.386 18.0037 33.3063C18.1221 33.2267 18.2132 33.106 18.2769 32.9467C18.3429 32.7873 18.3748 32.5961 18.3748 32.3731C18.3748 32.1386 18.3406 31.9383 18.2723 31.7721C18.204 31.6059 18.1062 31.4785 17.981 31.3874C17.8535 31.2964 17.6987 31.2508 17.512 31.2508C17.3481 31.2508 17.2047 31.2918 17.0841 31.3715C16.9635 31.4511 16.8701 31.5695 16.8041 31.7266C16.7381 31.8836 16.7062 32.0749 16.7062 32.3048C16.7062 32.6667 16.7836 32.9421 16.9361 33.1356C17.0909 33.3291 17.3003 33.4247 17.5667 33.4247L17.569 33.427Z" fill="#A020F0"/>
<path d="M21.4155 33.4565C21.0991 33.4565 20.8214 33.3905 20.5801 33.2584C20.3388 33.1264 20.1521 32.9352 20.0133 32.6825C19.8767 32.4299 19.8062 32.1203 19.8062 31.7493C19.8062 31.3782 19.8767 31.0641 20.0156 30.8137C20.1544 30.5633 20.3456 30.3766 20.5892 30.2537C20.8305 30.1308 21.1059 30.0693 21.4132 30.0693C21.7205 30.0693 22.0028 30.1331 22.2441 30.2605C22.4854 30.388 22.6766 30.577 22.8177 30.8296C22.9566 31.0823 23.0271 31.3941 23.0271 31.7697C23.0271 32.1453 22.9566 32.4595 22.8154 32.7099C22.6743 32.958 22.4808 33.1446 22.2372 33.2698C21.9937 33.395 21.7182 33.4588 21.4155 33.4588V33.4565ZM21.4474 32.8601C21.6204 32.8601 21.7638 32.8191 21.8821 32.7394C22.0005 32.6598 22.0916 32.5391 22.1553 32.3798C22.2213 32.2204 22.2532 32.0292 22.2532 31.8062C22.2532 31.5717 22.219 31.3714 22.1507 31.2052C22.0825 31.039 21.9846 30.9116 21.8594 30.8205C21.7319 30.7295 21.5771 30.6839 21.3905 30.6839C21.2266 30.6839 21.0832 30.7249 20.9625 30.8046C20.8419 30.8843 20.7485 31.0026 20.6825 31.1597C20.6165 31.3168 20.5846 31.508 20.5846 31.7379C20.5846 32.0998 20.662 32.3752 20.8146 32.5687C20.9693 32.7622 21.1788 32.8578 21.4451 32.8578L21.4474 32.8601Z" fill="#A020F0"/>
<path d="M23.7241 35.3846L23.7173 32.7736L23.7241 31.1415H24.3774L24.3706 32.0088L24.4685 32.0202C24.514 31.8153 24.5823 31.6423 24.6711 31.4989C24.7621 31.3578 24.8805 31.2485 25.0262 31.1734C25.1718 31.0983 25.3403 31.0596 25.5338 31.0596C25.8251 31.0596 26.071 31.1324 26.2736 31.2758C26.4739 31.4192 26.6264 31.6195 26.7288 31.8768C26.8313 32.134 26.8836 32.4299 26.8836 32.7668C26.8836 33.1037 26.8358 33.3723 26.7425 33.625C26.6492 33.8776 26.5035 34.078 26.3123 34.2259C26.1211 34.3739 25.8798 34.4467 25.5907 34.4467C25.3767 34.4467 25.1992 34.4035 25.0558 34.3192C24.9123 34.235 24.794 34.1212 24.7052 33.9778C24.6141 33.8344 24.5413 33.6682 24.4844 33.4793L24.3729 33.4725C24.4025 33.5863 24.4252 33.7024 24.4411 33.8207C24.4571 33.9368 24.4707 34.0529 24.4844 34.1667C24.4958 34.2805 24.5026 34.3875 24.5026 34.49V35.3823H23.7264L23.7241 35.3846ZM25.3312 33.8139C25.4905 33.8139 25.6248 33.7684 25.7341 33.6773C25.8434 33.5863 25.9276 33.4634 25.989 33.3086C26.0505 33.1538 26.0824 32.9694 26.0824 32.76C26.0824 32.5506 26.0505 32.3616 25.989 32.2068C25.9276 32.0498 25.8388 31.9291 25.725 31.8426C25.6112 31.7561 25.4746 31.7129 25.3198 31.7129C25.1832 31.7129 25.0649 31.7447 24.9601 31.8062C24.8554 31.8677 24.7689 31.9496 24.7007 32.0498C24.6324 32.1499 24.5823 32.2592 24.5504 32.373C24.5163 32.4891 24.5003 32.5984 24.5003 32.7053V32.8169C24.5003 32.8943 24.5094 32.9785 24.5322 33.0696C24.5527 33.1606 24.5846 33.2494 24.6301 33.3382C24.6756 33.4269 24.7325 33.5066 24.7985 33.5749C24.8668 33.6455 24.9442 33.7024 25.033 33.7479C25.1218 33.7934 25.2219 33.8162 25.3312 33.8162V33.8139Z" fill="#313842"/>
<path d="M27.5986 34.3624V29.9896H28.368V34.3624H27.5986Z" fill="#313842"/>
<path d="M30.9812 34.4034C30.7217 34.4489 30.4872 34.4512 30.2732 34.4125C30.0592 34.3738 29.8726 34.2964 29.711 34.1803C29.5494 34.0642 29.415 33.9163 29.3126 33.7319C29.2102 33.5475 29.1351 33.329 29.0895 33.0741C29.044 32.8191 29.0395 32.5869 29.0713 32.3638C29.1032 32.1408 29.1715 31.9405 29.2785 31.7606C29.3855 31.5808 29.5266 31.4328 29.7041 31.3167C29.8817 31.2007 30.0911 31.121 30.3347 31.0777C30.5782 31.0345 30.7854 31.0368 30.9812 31.0777C31.1792 31.121 31.3522 31.2075 31.5002 31.3395C31.6481 31.4715 31.7733 31.6445 31.8735 31.8585C31.9736 32.0725 32.0442 32.3297 32.0852 32.6302L29.6063 33.0809L29.5289 32.6393L31.5571 32.2682L31.3271 32.5596C31.3112 32.3251 31.2611 32.1385 31.1746 32.0019C31.0904 31.8653 30.9834 31.772 30.856 31.7197C30.7285 31.6696 30.5919 31.6559 30.4462 31.6832C30.2846 31.7128 30.1503 31.7811 30.041 31.8881C29.9341 31.9974 29.8589 32.1385 29.8202 32.3138C29.7815 32.489 29.7815 32.6939 29.8225 32.9284C29.884 33.2789 30.0069 33.5293 30.1913 33.675C30.3757 33.8207 30.6056 33.8708 30.881 33.823C31.0016 33.8025 31.1018 33.7683 31.1792 33.7228C31.2566 33.6773 31.318 33.6249 31.3659 33.5612C31.4137 33.4974 31.4478 33.4314 31.4706 33.3609C31.4933 33.2903 31.5093 33.2197 31.5184 33.1514L32.2104 33.1788C32.2013 33.3358 32.1694 33.477 32.1193 33.6067C32.0692 33.7365 31.9941 33.8548 31.8939 33.9618C31.7938 34.0688 31.6686 34.1599 31.5206 34.2304C31.3704 34.3033 31.1906 34.3579 30.9812 34.3943V34.4034Z" fill="#313842"/>
<path d="M13.2142 29.1588H12.438V29.9897H13.2142V29.1588Z" fill="#313842"/>
<path d="M46.7926 34V27.4545H50.7429V28.1577H47.5852V30.3693H50.5384V31.0724H47.5852V33.2969H50.794V34H46.7926ZM56.0835 29.0909L54.2681 34H53.5011L51.6857 29.0909H52.5039L53.859 33.0028H53.9102L55.2653 29.0909H56.0835ZM58.9615 34.1023C58.4885 34.1023 58.0804 33.9979 57.7374 33.7891C57.3965 33.5781 57.1333 33.2841 56.948 32.907C56.7647 32.5277 56.6731 32.0866 56.6731 31.5838C56.6731 31.081 56.7647 30.6378 56.948 30.2543C57.1333 29.8686 57.3912 29.5682 57.7214 29.353C58.0538 29.1357 58.4416 29.027 58.8848 29.027C59.1404 29.027 59.3929 29.0696 59.6422 29.1548C59.8915 29.2401 60.1184 29.3786 60.323 29.5703C60.5275 29.7599 60.6905 30.0114 60.812 30.3246C60.9334 30.6378 60.9941 31.0234 60.9941 31.4815V31.8011H57.21V31.1491H60.2271C60.2271 30.8722 60.1717 30.625 60.0609 30.4077C59.9522 30.1903 59.7967 30.0188 59.5943 29.8931C59.394 29.7674 59.1575 29.7045 58.8848 29.7045C58.5843 29.7045 58.3244 29.7791 58.1049 29.9283C57.8876 30.0753 57.7203 30.267 57.6032 30.5036C57.486 30.7401 57.4274 30.9936 57.4274 31.2642V31.6989C57.4274 32.0696 57.4913 32.3839 57.6191 32.6417C57.7491 32.8974 57.9292 33.0923 58.1593 33.2266C58.3894 33.3587 58.6568 33.4247 58.9615 33.4247C59.1596 33.4247 59.3386 33.397 59.4984 33.3416C59.6603 33.2841 59.7999 33.1989 59.9171 33.0859C60.0343 32.9709 60.1248 32.8281 60.1887 32.6577L60.9174 32.8622C60.8407 33.1094 60.7118 33.3267 60.5307 33.5142C60.3496 33.6996 60.1259 33.8445 59.8596 33.9489C59.5932 34.0511 59.2939 34.1023 58.9615 34.1023ZM62.8958 31.0469V34H62.1415V29.0909H62.8702V29.858H62.9341C63.0492 29.6087 63.2239 29.4084 63.4583 29.2571C63.6926 29.1037 63.9952 29.027 64.3659 29.027C64.6983 29.027 64.9892 29.0952 65.2385 29.2315C65.4877 29.3658 65.6816 29.5703 65.8201 29.8452C65.9586 30.1179 66.0279 30.4631 66.0279 30.8807V34H65.2736V30.9318C65.2736 30.5462 65.1735 30.2457 64.9732 30.0305C64.7729 29.8132 64.498 29.7045 64.1486 29.7045C63.9078 29.7045 63.6926 29.7567 63.503 29.8612C63.3155 29.9656 63.1674 30.1179 63.0588 30.3182C62.9501 30.5185 62.8958 30.7614 62.8958 31.0469ZM69.5411 29.0909V29.7301H66.9971V29.0909H69.5411ZM67.7385 27.9148H68.4928V32.5938C68.4928 32.8068 68.5237 32.9666 68.5855 33.0732C68.6494 33.1776 68.7304 33.2479 68.8284 33.2841C68.9285 33.3182 69.034 33.3352 69.1448 33.3352C69.2279 33.3352 69.2961 33.331 69.3493 33.3224C69.4026 33.3118 69.4452 33.3033 69.4772 33.2969L69.6306 33.9744C69.5795 33.9936 69.5081 34.0128 69.4165 34.032C69.3248 34.0533 69.2087 34.0639 69.0681 34.0639C68.855 34.0639 68.6462 34.0181 68.4417 33.9265C68.2393 33.8349 68.0709 33.6953 67.9367 33.5078C67.8046 33.3203 67.7385 33.0838 67.7385 32.7983V27.9148ZM73.3092 27.4545H74.2552L76.4797 32.8878H76.5564L78.7808 27.4545H79.7268V34H78.9854V29.027H78.9214L76.876 34H76.1601L74.1146 29.027H74.0507V34H73.3092V27.4545ZM82.6584 34.1151C82.3473 34.1151 82.065 34.0565 81.8114 33.9393C81.5579 33.82 81.3565 33.6484 81.2074 33.4247C81.0582 33.1989 80.9837 32.9261 80.9837 32.6065C80.9837 32.3253 81.0391 32.0973 81.1499 31.9226C81.2607 31.7457 81.4087 31.6072 81.5941 31.5071C81.7795 31.407 81.984 31.3324 82.2077 31.2834C82.4336 31.2322 82.6605 31.1918 82.8885 31.1619C83.1868 31.1236 83.4286 31.0948 83.614 31.0756C83.8015 31.0543 83.9379 31.0192 84.0231 30.9702C84.1104 30.9212 84.1541 30.8359 84.1541 30.7145V30.6889C84.1541 30.3736 84.0678 30.1286 83.8952 29.9538C83.7248 29.7791 83.4659 29.6918 83.1186 29.6918C82.7585 29.6918 82.4762 29.7706 82.2717 29.9283C82.0671 30.0859 81.9233 30.2543 81.8402 30.4332L81.1243 30.1776C81.2521 29.8793 81.4226 29.647 81.6357 29.4808C81.8509 29.3125 82.0852 29.1953 82.3388 29.1293C82.5945 29.0611 82.8459 29.027 83.093 29.027C83.2507 29.027 83.4318 29.0462 83.6364 29.0845C83.843 29.1207 84.0423 29.1964 84.234 29.3114C84.4279 29.4265 84.5888 29.6001 84.7166 29.8324C84.8445 30.0646 84.9084 30.3757 84.9084 30.7656V34H84.1541V33.3352H84.1158C84.0646 33.4418 83.9794 33.5558 83.8601 33.6772C83.7408 33.7987 83.582 33.902 83.3839 33.9872C83.1857 34.0724 82.9439 34.1151 82.6584 34.1151ZM82.7734 33.4375C83.0717 33.4375 83.3232 33.3789 83.5277 33.2617C83.7344 33.1445 83.8899 32.9933 83.9943 32.8079C84.1009 32.6225 84.1541 32.4276 84.1541 32.223V31.5327C84.1222 31.571 84.0518 31.6062 83.9432 31.6381C83.8366 31.668 83.7131 31.6946 83.5724 31.718C83.4339 31.7393 83.2987 31.7585 83.1665 31.7756C83.0366 31.7905 82.9311 31.8033 82.8501 31.8139C82.6541 31.8395 82.4709 31.881 82.3004 31.9386C82.1321 31.994 81.9957 32.0781 81.8913 32.1911C81.7891 32.3018 81.7379 32.4531 81.7379 32.6449C81.7379 32.907 81.8349 33.1051 82.0288 33.2393C82.2248 33.3714 82.473 33.4375 82.7734 33.4375ZM89.7623 30.1903L89.0848 30.3821C89.0422 30.2692 88.9793 30.1594 88.8962 30.0529C88.8153 29.9442 88.7045 29.8548 88.5638 29.7844C88.4232 29.7141 88.2432 29.679 88.0237 29.679C87.7233 29.679 87.4729 29.7482 87.2726 29.8867C87.0745 30.0231 86.9754 30.1967 86.9754 30.4077C86.9754 30.5952 87.0436 30.7433 87.18 30.8519C87.3163 30.9606 87.5294 31.0511 87.8192 31.1236L88.5479 31.3026C88.9868 31.4091 89.3138 31.5721 89.529 31.7915C89.7442 32.0089 89.8518 32.2891 89.8518 32.6321C89.8518 32.9134 89.7709 33.1648 89.6089 33.3864C89.4491 33.608 89.2254 33.7827 88.9378 33.9105C88.6501 34.0384 88.3156 34.1023 87.9342 34.1023C87.4335 34.1023 87.0191 33.9936 86.691 33.7763C86.3628 33.5589 86.1551 33.2415 86.0677 32.8239L86.7836 32.6449C86.8518 32.9091 86.9807 33.1072 87.1704 33.2393C87.3621 33.3714 87.6125 33.4375 87.9214 33.4375C88.273 33.4375 88.5521 33.3629 88.7588 33.2138C88.9676 33.0625 89.072 32.8814 89.072 32.6705C89.072 32.5 89.0123 32.3572 88.893 32.2422C88.7737 32.125 88.5905 32.0376 88.3433 31.9801L87.5251 31.7884C87.0756 31.6818 86.7453 31.5167 86.5344 31.293C86.3256 31.0671 86.2211 30.7848 86.2211 30.446C86.2211 30.169 86.2989 29.924 86.4545 29.7109C86.6121 29.4979 86.8263 29.3306 87.0969 29.2092C87.3696 29.0877 87.6785 29.027 88.0237 29.027C88.5095 29.027 88.8909 29.1335 89.1679 29.3466C89.447 29.5597 89.6452 29.8409 89.7623 30.1903ZM93.1222 29.0909V29.7301H90.5781V29.0909H93.1222ZM91.3196 27.9148H92.0739V32.5938C92.0739 32.8068 92.1048 32.9666 92.1665 33.0732C92.2305 33.1776 92.3114 33.2479 92.4094 33.2841C92.5096 33.3182 92.6151 33.3352 92.7259 33.3352C92.8089 33.3352 92.8771 33.331 92.9304 33.3224C92.9837 33.3118 93.0263 33.3033 93.0582 33.2969L93.2116 33.9744C93.1605 33.9936 93.0891 34.0128 92.9975 34.032C92.9059 34.0533 92.7898 34.0639 92.6491 34.0639C92.4361 34.0639 92.2273 34.0181 92.0227 33.9265C91.8203 33.8349 91.652 33.6953 91.5178 33.5078C91.3857 33.3203 91.3196 33.0838 91.3196 32.7983V27.9148ZM96.2623 34.1023C95.7892 34.1023 95.3812 33.9979 95.0382 33.7891C94.6973 33.5781 94.4341 33.2841 94.2488 32.907C94.0655 32.5277 93.9739 32.0866 93.9739 31.5838C93.9739 31.081 94.0655 30.6378 94.2488 30.2543C94.4341 29.8686 94.6919 29.5682 95.0222 29.353C95.3546 29.1357 95.7424 29.027 96.1855 29.027C96.4412 29.027 96.6937 29.0696 96.943 29.1548C97.1923 29.2401 97.4192 29.3786 97.6238 29.5703C97.8283 29.7599 97.9913 30.0114 98.1127 30.3246C98.2342 30.6378 98.2949 31.0234 98.2949 31.4815V31.8011H94.5108V31.1491H97.5279C97.5279 30.8722 97.4725 30.625 97.3617 30.4077C97.253 30.1903 97.0975 30.0188 96.8951 29.8931C96.6948 29.7674 96.4583 29.7045 96.1855 29.7045C95.8851 29.7045 95.6252 29.7791 95.4057 29.9283C95.1884 30.0753 95.0211 30.267 94.9039 30.5036C94.7868 30.7401 94.7282 30.9936 94.7282 31.2642V31.6989C94.7282 32.0696 94.7921 32.3839 94.9199 32.6417C95.0499 32.8974 95.2299 33.0923 95.46 33.2266C95.6902 33.3587 95.9576 33.4247 96.2623 33.4247C96.4604 33.4247 96.6394 33.397 96.7992 33.3416C96.9611 33.2841 97.1007 33.1989 97.2179 33.0859C97.335 32.9709 97.4256 32.8281 97.4895 32.6577L98.2182 32.8622C98.1415 33.1094 98.0126 33.3267 97.8315 33.5142C97.6504 33.6996 97.4267 33.8445 97.1603 33.9489C96.894 34.0511 96.5946 34.1023 96.2623 34.1023ZM99.4423 34V29.0909H100.171V29.8324H100.222C100.312 29.5895 100.474 29.3924 100.708 29.2411C100.942 29.0898 101.206 29.0142 101.501 29.0142C101.556 29.0142 101.625 29.0153 101.708 29.0174C101.791 29.0195 101.854 29.0227 101.897 29.027V29.794C101.871 29.7876 101.813 29.7781 101.721 29.7653C101.632 29.7504 101.537 29.7429 101.437 29.7429C101.198 29.7429 100.985 29.793 100.797 29.8931C100.612 29.9911 100.465 30.1275 100.356 30.3022C100.25 30.4748 100.197 30.6719 100.197 30.8935V34H99.4423ZM106.613 34L104.824 27.4545H105.629L106.997 32.7855H107.061L108.454 27.4545H109.349L110.743 32.7855H110.807L112.174 27.4545H112.98L111.19 34H110.372L108.927 28.7841H108.876L107.432 34H106.613ZM114.76 27.4545V34H113.967V27.4545H114.76ZM118.369 34H116.349V27.4545H118.459C119.094 27.4545 119.637 27.5856 120.089 27.8477C120.54 28.1076 120.887 28.4815 121.127 28.9695C121.368 29.4553 121.488 30.0369 121.488 30.7145C121.488 31.3963 121.367 31.9833 121.124 32.4755C120.881 32.9656 120.528 33.3427 120.063 33.6069C119.599 33.869 119.034 34 118.369 34ZM117.142 33.2969H118.318C118.859 33.2969 119.308 33.1925 119.664 32.9837C120.019 32.7749 120.285 32.4776 120.459 32.092C120.634 31.7063 120.721 31.2472 120.721 30.7145C120.721 30.1861 120.635 29.7312 120.463 29.3498C120.29 28.9663 120.032 28.6722 119.689 28.4677C119.346 28.261 118.919 28.1577 118.407 28.1577H117.142V33.2969ZM122.818 34V27.4545H126.768V28.1577H123.611V30.3693H126.564V31.0724H123.611V33.2969H126.819V34H122.818ZM128.197 27.4545H129.143L131.367 32.8878H131.444L133.669 27.4545H134.615V34H133.873V29.027H133.809L131.764 34H131.048L129.002 29.027H128.938V34H128.197V27.4545ZM136.996 27.4545V34H136.204V27.4545H136.996ZM143.776 27.4545V34H143.009L139.442 28.8608H139.378V34H138.586V27.4545H139.353L142.932 32.6065H142.996V27.4545H143.776ZM147.791 34V29.0909H148.545V34H147.791ZM148.174 28.2727C148.027 28.2727 147.901 28.2227 147.794 28.1225C147.69 28.0224 147.638 27.902 147.638 27.7614C147.638 27.6207 147.69 27.5004 147.794 27.4002C147.901 27.3001 148.027 27.25 148.174 27.25C148.321 27.25 148.447 27.3001 148.552 27.4002C148.658 27.5004 148.711 27.6207 148.711 27.7614C148.711 27.902 148.658 28.0224 148.552 28.1225C148.447 28.2227 148.321 28.2727 148.174 28.2727ZM150.681 31.0469V34H149.927V29.0909H150.655V29.858H150.719C150.834 29.6087 151.009 29.4084 151.243 29.2571C151.478 29.1037 151.78 29.027 152.151 29.027C152.483 29.027 152.774 29.0952 153.024 29.2315C153.273 29.3658 153.467 29.5703 153.605 29.8452C153.744 30.1179 153.813 30.4631 153.813 30.8807V34H153.059V30.9318C153.059 30.5462 152.959 30.2457 152.758 30.0305C152.558 29.8132 152.283 29.7045 151.934 29.7045C151.693 29.7045 151.478 29.7567 151.288 29.8612C151.101 29.9656 150.953 30.1179 150.844 30.3182C150.735 30.5185 150.681 30.7614 150.681 31.0469ZM159.781 34.1023C159.308 34.1023 158.9 33.9979 158.557 33.7891C158.216 33.5781 157.953 33.2841 157.767 32.907C157.584 32.5277 157.492 32.0866 157.492 31.5838C157.492 31.081 157.584 30.6378 157.767 30.2543C157.953 29.8686 158.21 29.5682 158.541 29.353C158.873 29.1357 159.261 29.027 159.704 29.027C159.96 29.027 160.212 29.0696 160.462 29.1548C160.711 29.2401 160.938 29.3786 161.142 29.5703C161.347 29.7599 161.51 30.0114 161.631 30.3246C161.753 30.6378 161.813 31.0234 161.813 31.4815V31.8011H158.029V31.1491H161.046C161.046 30.8722 160.991 30.625 160.88 30.4077C160.772 30.1903 160.616 30.0188 160.414 29.8931C160.213 29.7674 159.977 29.7045 159.704 29.7045C159.404 29.7045 159.144 29.7791 158.924 29.9283C158.707 30.0753 158.54 30.267 158.422 30.5036C158.305 30.7401 158.247 30.9936 158.247 31.2642V31.6989C158.247 32.0696 158.311 32.3839 158.438 32.6417C158.568 32.8974 158.748 33.0923 158.979 33.2266C159.209 33.3587 159.476 33.4247 159.781 33.4247C159.979 33.4247 160.158 33.397 160.318 33.3416C160.48 33.2841 160.619 33.1989 160.736 33.0859C160.854 32.9709 160.944 32.8281 161.008 32.6577L161.737 32.8622C161.66 33.1094 161.531 33.3267 161.35 33.5142C161.169 33.6996 160.945 33.8445 160.679 33.9489C160.413 34.0511 160.113 34.1023 159.781 34.1023ZM166.826 29.0909L165.01 34H164.243L162.428 29.0909H163.246L164.601 33.0028H164.652L166.007 29.0909H166.826ZM169.704 34.1023C169.231 34.1023 168.823 33.9979 168.48 33.7891C168.139 33.5781 167.876 33.2841 167.69 32.907C167.507 32.5277 167.415 32.0866 167.415 31.5838C167.415 31.081 167.507 30.6378 167.69 30.2543C167.876 29.8686 168.133 29.5682 168.464 29.353C168.796 29.1357 169.184 29.027 169.627 29.027C169.883 29.027 170.135 29.0696 170.384 29.1548C170.634 29.2401 170.861 29.3786 171.065 29.5703C171.27 29.7599 171.433 30.0114 171.554 30.3246C171.676 30.6378 171.736 31.0234 171.736 31.4815V31.8011H167.952V31.1491H170.969C170.969 30.8722 170.914 30.625 170.803 30.4077C170.694 30.1903 170.539 30.0188 170.336 29.8931C170.136 29.7674 169.9 29.7045 169.627 29.7045C169.327 29.7045 169.067 29.7791 168.847 29.9283C168.63 30.0753 168.463 30.267 168.345 30.5036C168.228 30.7401 168.17 30.9936 168.17 31.2642V31.6989C168.17 32.0696 168.233 32.3839 168.361 32.6417C168.491 32.8974 168.671 33.0923 168.901 33.2266C169.132 33.3587 169.399 33.4247 169.704 33.4247C169.902 33.4247 170.081 33.397 170.241 33.3416C170.403 33.2841 170.542 33.1989 170.659 33.0859C170.776 32.9709 170.867 32.8281 170.931 32.6577L171.66 32.8622C171.583 33.1094 171.454 33.3267 171.273 33.5142C171.092 33.6996 170.868 33.8445 170.602 33.9489C170.335 34.0511 170.036 34.1023 169.704 34.1023ZM173.638 31.0469V34H172.884V29.0909H173.612V29.858H173.676C173.791 29.6087 173.966 29.4084 174.2 29.2571C174.435 29.1037 174.737 29.027 175.108 29.027C175.441 29.027 175.731 29.0952 175.981 29.2315C176.23 29.3658 176.424 29.5703 176.562 29.8452C176.701 30.1179 176.77 30.4631 176.77 30.8807V34H176.016V30.9318C176.016 30.5462 175.916 30.2457 175.715 30.0305C175.515 29.8132 175.24 29.7045 174.891 29.7045C174.65 29.7045 174.435 29.7567 174.245 29.8612C174.058 29.9656 173.91 30.1179 173.801 30.3182C173.692 30.5185 173.638 30.7614 173.638 31.0469ZM180.283 29.0909V29.7301H177.739V29.0909H180.283ZM178.481 27.9148H179.235V32.5938C179.235 32.8068 179.266 32.9666 179.328 33.0732C179.392 33.1776 179.473 33.2479 179.571 33.2841C179.671 33.3182 179.776 33.3352 179.887 33.3352C179.97 33.3352 180.038 33.331 180.092 33.3224C180.145 33.3118 180.187 33.3033 180.219 33.2969L180.373 33.9744C180.322 33.9936 180.25 34.0128 180.159 34.032C180.067 34.0533 179.951 34.0639 179.81 34.0639C179.597 34.0639 179.388 34.0181 179.184 33.9265C178.981 33.8349 178.813 33.6953 178.679 33.5078C178.547 33.3203 178.481 33.0838 178.481 32.7983V27.9148ZM185.24 34L183.451 27.4545H184.256L185.624 32.7855H185.688L187.081 27.4545H187.976L189.37 32.7855H189.434L190.801 27.4545H191.607L189.817 34H188.999L187.554 28.7841H187.503L186.059 34H185.24ZM193.387 27.4545V34H192.594V27.4545H193.387ZM196.996 34H194.976V27.4545H197.086C197.721 27.4545 198.264 27.5856 198.716 27.8477C199.167 28.1076 199.513 28.4815 199.754 28.9695C199.995 29.4553 200.115 30.0369 200.115 30.7145C200.115 31.3963 199.994 31.9833 199.751 32.4755C199.508 32.9656 199.154 33.3427 198.69 33.6069C198.225 33.869 197.661 34 196.996 34ZM195.769 33.2969H196.945C197.486 33.2969 197.935 33.1925 198.29 32.9837C198.646 32.7749 198.912 32.4776 199.086 32.092C199.261 31.7063 199.348 31.2472 199.348 30.7145C199.348 30.1861 199.262 29.7312 199.089 29.3498C198.917 28.9663 198.659 28.6722 198.316 28.4677C197.973 28.261 197.546 28.1577 197.034 28.1577H195.769V33.2969ZM201.445 34V27.4545H205.395V28.1577H202.238V30.3693H205.191V31.0724H202.238V33.2969H205.446V34H201.445ZM214.622 29.5H213.83C213.783 29.272 213.701 29.0717 213.583 28.8991C213.468 28.7266 213.328 28.5817 213.162 28.4645C212.998 28.3452 212.815 28.2557 212.615 28.196C212.415 28.1364 212.206 28.1065 211.989 28.1065C211.592 28.1065 211.233 28.2067 210.912 28.407C210.592 28.6072 210.337 28.9023 210.148 29.2923C209.96 29.6822 209.866 30.1605 209.866 30.7273C209.866 31.294 209.96 31.7724 210.148 32.1623C210.337 32.5522 210.592 32.8473 210.912 33.0476C211.233 33.2479 211.592 33.348 211.989 33.348C212.206 33.348 212.415 33.3182 212.615 33.2585C212.815 33.1989 212.998 33.1104 213.162 32.9933C213.328 32.8739 213.468 32.728 213.583 32.5554C213.701 32.3807 213.783 32.1804 213.83 31.9545H214.622C214.563 32.2891 214.454 32.5884 214.296 32.8526C214.138 33.1168 213.942 33.3416 213.708 33.527C213.474 33.7102 213.211 33.8498 212.919 33.9457C212.629 34.0415 212.319 34.0895 211.989 34.0895C211.43 34.0895 210.934 33.9531 210.499 33.6804C210.065 33.4077 209.723 33.0199 209.473 32.517C209.224 32.0142 209.099 31.4176 209.099 30.7273C209.099 30.0369 209.224 29.4403 209.473 28.9375C209.723 28.4347 210.065 28.0469 210.499 27.7741C210.934 27.5014 211.43 27.3651 211.989 27.3651C212.319 27.3651 212.629 27.413 212.919 27.5089C213.211 27.6048 213.474 27.7454 213.708 27.9308C213.942 28.114 214.138 28.3377 214.296 28.6019C214.454 28.864 214.563 29.1634 214.622 29.5ZM217.795 34.1023C217.352 34.1023 216.963 33.9968 216.628 33.7859C216.296 33.5749 216.036 33.2798 215.849 32.9006C215.663 32.5213 215.571 32.0781 215.571 31.571C215.571 31.0597 215.663 30.6133 215.849 30.2319C216.036 29.8505 216.296 29.5543 216.628 29.3434C216.963 29.1325 217.352 29.027 217.795 29.027C218.238 29.027 218.626 29.1325 218.958 29.3434C219.293 29.5543 219.553 29.8505 219.738 30.2319C219.926 30.6133 220.019 31.0597 220.019 31.571C220.019 32.0781 219.926 32.5213 219.738 32.9006C219.553 33.2798 219.293 33.5749 218.958 33.7859C218.626 33.9968 218.238 34.1023 217.795 34.1023ZM217.795 33.4247C218.132 33.4247 218.409 33.3384 218.626 33.1658C218.843 32.9933 219.004 32.7663 219.109 32.4851C219.213 32.2038 219.265 31.8991 219.265 31.571C219.265 31.2429 219.213 30.9371 219.109 30.6538C219.004 30.3704 218.843 30.1413 218.626 29.9666C218.409 29.7919 218.132 29.7045 217.795 29.7045C217.458 29.7045 217.181 29.7919 216.964 29.9666C216.747 30.1413 216.586 30.3704 216.481 30.6538C216.377 30.9371 216.325 31.2429 216.325 31.571C216.325 31.8991 216.377 32.2038 216.481 32.4851C216.586 32.7663 216.747 32.9933 216.964 33.1658C217.181 33.3384 217.458 33.4247 217.795 33.4247ZM221.171 34V29.0909H221.9V29.858H221.963C222.066 29.5959 222.231 29.3924 222.459 29.2475C222.687 29.1005 222.961 29.027 223.28 29.027C223.604 29.027 223.874 29.1005 224.089 29.2475C224.306 29.3924 224.475 29.5959 224.597 29.858H224.648C224.774 29.6044 224.962 29.4031 225.214 29.2539C225.465 29.1026 225.767 29.027 226.118 29.027C226.557 29.027 226.916 29.1644 227.195 29.4393C227.474 29.712 227.614 30.1371 227.614 30.7145V34H226.86V30.7145C226.86 30.3523 226.761 30.0934 226.562 29.9379C226.364 29.7823 226.131 29.7045 225.863 29.7045C225.517 29.7045 225.25 29.8089 225.06 30.0178C224.871 30.2244 224.776 30.4865 224.776 30.804V34H224.009V30.6378C224.009 30.3587 223.918 30.1339 223.737 29.9634C223.556 29.7908 223.323 29.7045 223.037 29.7045C222.841 29.7045 222.658 29.7567 222.488 29.8612C222.319 29.9656 222.183 30.1104 222.078 30.2958C221.976 30.479 221.925 30.6911 221.925 30.9318V34H221.171ZM228.993 34V29.0909H229.722V29.858H229.786C229.888 29.5959 230.053 29.3924 230.281 29.2475C230.509 29.1005 230.783 29.027 231.102 29.027C231.426 29.027 231.696 29.1005 231.911 29.2475C232.128 29.3924 232.298 29.5959 232.419 29.858H232.47C232.596 29.6044 232.785 29.4031 233.036 29.2539C233.287 29.1026 233.589 29.027 233.941 29.027C234.379 29.027 234.738 29.1644 235.018 29.4393C235.297 29.712 235.436 30.1371 235.436 30.7145V34H234.682V30.7145C234.682 30.3523 234.583 30.0934 234.385 29.9379C234.187 29.7823 233.953 29.7045 233.685 29.7045C233.34 29.7045 233.072 29.8089 232.883 30.0178C232.693 30.2244 232.598 30.4865 232.598 30.804V34H231.831V30.6378C231.831 30.3587 231.741 30.1339 231.559 29.9634C231.378 29.7908 231.145 29.7045 230.86 29.7045C230.664 29.7045 230.48 29.7567 230.31 29.8612C230.142 29.9656 230.005 30.1104 229.901 30.2958C229.798 30.479 229.747 30.6911 229.747 30.9318V34H228.993ZM239.909 31.9929V29.0909H240.663V34H239.909V33.169H239.858C239.743 33.4183 239.564 33.6303 239.321 33.805C239.078 33.9776 238.771 34.0639 238.401 34.0639C238.094 34.0639 237.821 33.9968 237.582 33.8626C237.344 33.7262 237.156 33.5217 237.02 33.2489C236.884 32.9741 236.815 32.6278 236.815 32.2102V29.0909H237.57V32.1591C237.57 32.517 237.67 32.8026 237.87 33.0156C238.072 33.2287 238.33 33.3352 238.643 33.3352C238.831 33.3352 239.022 33.2873 239.216 33.1914C239.412 33.0955 239.576 32.9485 239.708 32.7504C239.842 32.5522 239.909 32.2997 239.909 31.9929ZM242.799 31.0469V34H242.045V29.0909H242.774V29.858H242.837C242.953 29.6087 243.127 29.4084 243.362 29.2571C243.596 29.1037 243.899 29.027 244.269 29.027C244.602 29.027 244.892 29.0952 245.142 29.2315C245.391 29.3658 245.585 29.5703 245.723 29.8452C245.862 30.1179 245.931 30.4631 245.931 30.8807V34H245.177V30.9318C245.177 30.5462 245.077 30.2457 244.877 30.0305C244.676 29.8132 244.401 29.7045 244.052 29.7045C243.811 29.7045 243.596 29.7567 243.406 29.8612C243.219 29.9656 243.071 30.1179 242.962 30.3182C242.853 30.5185 242.799 30.7614 242.799 31.0469ZM247.309 34V29.0909H248.064V34H247.309ZM247.693 28.2727C247.546 28.2727 247.419 28.2227 247.313 28.1225C247.208 28.0224 247.156 27.902 247.156 27.7614C247.156 27.6207 247.208 27.5004 247.313 27.4002C247.419 27.3001 247.546 27.25 247.693 27.25C247.84 27.25 247.966 27.3001 248.07 27.4002C248.177 27.5004 248.23 27.6207 248.23 27.7614C248.23 27.902 248.177 28.0224 248.07 28.1225C247.966 28.2227 247.84 28.2727 247.693 28.2727ZM251.58 29.0909V29.7301H249.036V29.0909H251.58ZM249.778 27.9148H250.532V32.5938C250.532 32.8068 250.563 32.9666 250.625 33.0732C250.688 33.1776 250.769 33.2479 250.867 33.2841C250.968 33.3182 251.073 33.3352 251.184 33.3352C251.267 33.3352 251.335 33.331 251.388 33.3224C251.442 33.3118 251.484 33.3033 251.516 33.2969L251.67 33.9744C251.619 33.9936 251.547 34.0128 251.456 34.032C251.364 34.0533 251.248 34.0639 251.107 34.0639C250.894 34.0639 250.685 34.0181 250.481 33.9265C250.278 33.8349 250.11 33.6953 249.976 33.5078C249.844 33.3203 249.778 33.0838 249.778 32.7983V27.9148ZM253.201 35.8409C253.073 35.8409 252.959 35.8303 252.859 35.8089C252.758 35.7898 252.689 35.7706 252.651 35.7514L252.843 35.0866C253.026 35.1335 253.188 35.1506 253.328 35.1378C253.469 35.125 253.594 35.0621 253.702 34.9492C253.813 34.8384 253.914 34.6584 254.006 34.4091L254.147 34.0256L252.331 29.0909H253.149L254.505 33.0028H254.556L255.911 29.0909H256.729L254.645 34.7159C254.551 34.9695 254.435 35.1793 254.297 35.3455C254.158 35.5138 253.997 35.6385 253.814 35.7195C253.633 35.8004 253.429 35.8409 253.201 35.8409ZM260.243 34V33.4247L262.403 31.0597C262.657 30.7827 262.866 30.5419 263.03 30.3374C263.194 30.1307 263.315 29.9368 263.394 29.7557C263.475 29.5724 263.516 29.3807 263.516 29.1804C263.516 28.9503 263.46 28.7511 263.35 28.5827C263.241 28.4144 263.092 28.2844 262.902 28.1928C262.712 28.1012 262.499 28.0554 262.263 28.0554C262.011 28.0554 261.792 28.1076 261.604 28.212C261.419 28.3143 261.275 28.4581 261.173 28.6435C261.073 28.8288 261.023 29.0462 261.023 29.2955H260.269C260.269 28.9119 260.357 28.5753 260.534 28.2855C260.711 27.9957 260.951 27.7699 261.256 27.608C261.563 27.446 261.907 27.3651 262.288 27.3651C262.672 27.3651 263.012 27.446 263.308 27.608C263.604 27.7699 263.836 27.9883 264.005 28.2631C264.173 28.538 264.257 28.8438 264.257 29.1804C264.257 29.4212 264.214 29.6566 264.126 29.8867C264.041 30.1147 263.892 30.3693 263.679 30.6506C263.468 30.9297 263.175 31.2706 262.8 31.6733L261.33 33.2457V33.2969H264.372V34H260.243ZM267.827 34.0895C267.346 34.0895 266.935 33.9585 266.597 33.6964C266.258 33.4322 265.999 33.0497 265.82 32.549C265.641 32.0462 265.552 31.4389 265.552 30.7273C265.552 30.0199 265.641 29.4158 265.82 28.9151C266.001 28.4123 266.261 28.0288 266.6 27.7646C266.941 27.4982 267.35 27.3651 267.827 27.3651C268.304 27.3651 268.712 27.4982 269.051 27.7646C269.392 28.0288 269.652 28.4123 269.831 28.9151C270.012 29.4158 270.103 30.0199 270.103 30.7273C270.103 31.4389 270.013 32.0462 269.834 32.549C269.655 33.0497 269.396 33.4322 269.058 33.6964C268.719 33.9585 268.309 34.0895 267.827 34.0895ZM267.827 33.3864C268.304 33.3864 268.675 33.1562 268.939 32.696C269.204 32.2358 269.336 31.5795 269.336 30.7273C269.336 30.1605 269.275 29.6779 269.153 29.2795C269.034 28.881 268.862 28.5774 268.636 28.3686C268.412 28.1598 268.142 28.0554 267.827 28.0554C267.354 28.0554 266.984 28.2887 266.718 28.7553C266.452 29.2198 266.319 29.8771 266.319 30.7273C266.319 31.294 266.378 31.7756 266.498 32.1719C266.617 32.5682 266.788 32.8697 267.012 33.0763C267.238 33.283 267.51 33.3864 267.827 33.3864ZM271.317 34V33.4247L273.478 31.0597C273.731 30.7827 273.94 30.5419 274.104 30.3374C274.268 30.1307 274.39 29.9368 274.468 29.7557C274.549 29.5724 274.59 29.3807 274.59 29.1804C274.59 28.9503 274.535 28.7511 274.424 28.5827C274.315 28.4144 274.166 28.2844 273.976 28.1928C273.787 28.1012 273.574 28.0554 273.337 28.0554C273.086 28.0554 272.866 28.1076 272.679 28.212C272.493 28.3143 272.35 28.4581 272.247 28.6435C272.147 28.8288 272.097 29.0462 272.097 29.2955H271.343C271.343 28.9119 271.431 28.5753 271.608 28.2855C271.785 27.9957 272.026 27.7699 272.33 27.608C272.637 27.446 272.981 27.3651 273.363 27.3651C273.746 27.3651 274.086 27.446 274.382 27.608C274.678 27.7699 274.911 27.9883 275.079 28.2631C275.247 28.538 275.331 28.8438 275.331 29.1804C275.331 29.4212 275.288 29.6566 275.2 29.8867C275.115 30.1147 274.966 30.3693 274.753 30.6506C274.542 30.9297 274.249 31.2706 273.874 31.6733L272.404 33.2457V33.2969H275.446V34H271.317ZM276.472 32.6577V32.0057L279.349 27.4545H279.822V28.4645H279.502L277.329 31.9034V31.9545H281.203V32.6577H276.472ZM279.553 34V32.4595V32.1559V27.4545H280.308V34H279.553Z" fill="#31343B"/>
<rect x="90" y="76" width="308.591" height="63.0455" rx="13.2727" fill="#E7E3E3"/>
<path d="M143.791 85.6364V93.6364H142.681L138.615 87.7692H138.541V93.6364H137.333V85.6364H138.451L142.521 91.5114H142.595V85.6364H143.791ZM148.043 93.7574C147.452 93.7574 146.943 93.6311 146.516 93.3785C146.092 93.1233 145.764 92.7653 145.532 92.3043C145.303 91.8408 145.188 91.2978 145.188 90.6754C145.188 90.0608 145.303 89.5192 145.532 89.0504C145.764 88.5817 146.086 88.2158 146.5 87.9528C146.917 87.6897 147.404 87.5582 147.961 87.5582C148.3 87.5582 148.628 87.6142 148.946 87.7262C149.264 87.8382 149.549 88.014 149.801 88.2535C150.054 88.4931 150.253 88.8043 150.399 89.1871C150.545 89.5673 150.618 90.0296 150.618 90.5739V90.9879H145.848V90.1129H149.473C149.473 89.8056 149.411 89.5335 149.286 89.2965C149.161 89.0569 148.985 88.8681 148.758 88.7301C148.534 88.5921 148.271 88.5231 147.969 88.5231C147.641 88.5231 147.355 88.6038 147.11 88.7653C146.868 88.9241 146.68 89.1324 146.547 89.3903C146.417 89.6455 146.352 89.9228 146.352 90.2223V90.9059C146.352 91.3069 146.422 91.6481 146.563 91.9293C146.706 92.2106 146.905 92.4254 147.161 92.5739C147.416 92.7197 147.714 92.7926 148.055 92.7926C148.277 92.7926 148.478 92.7614 148.661 92.6989C148.843 92.6337 149 92.5374 149.133 92.4098C149.266 92.2822 149.368 92.1246 149.438 91.9371L150.543 92.1364C150.455 92.4619 150.296 92.747 150.067 92.9918C149.84 93.234 149.555 93.4228 149.211 93.5582C148.87 93.691 148.481 93.7574 148.043 93.7574ZM153.204 93.6364L151.438 87.6364H152.645L153.821 92.0426H153.879L155.059 87.6364H156.266L157.438 92.0231H157.497L158.665 87.6364H159.872L158.11 93.6364H156.918L155.7 89.3043H155.61L154.391 93.6364H153.204ZM163.59 86.6754V85.6364H169.782V86.6754H167.286V93.6364H166.083V86.6754H163.59ZM171.986 93.7692C171.606 93.7692 171.262 93.6989 170.955 93.5582C170.647 93.415 170.404 93.208 170.224 92.9371C170.047 92.6663 169.958 92.3343 169.958 91.941C169.958 91.6025 170.024 91.3239 170.154 91.1051C170.284 90.8864 170.46 90.7132 170.681 90.5856C170.903 90.458 171.15 90.3616 171.423 90.2965C171.697 90.2314 171.975 90.1819 172.259 90.1481C172.619 90.1064 172.91 90.0726 173.134 90.0465C173.358 90.0179 173.521 89.9723 173.623 89.9098C173.724 89.8473 173.775 89.7457 173.775 89.6051V89.5778C173.775 89.2366 173.679 88.9723 173.486 88.7848C173.296 88.5973 173.012 88.5035 172.634 88.5035C172.241 88.5035 171.931 88.5908 171.705 88.7653C171.481 88.9371 171.326 89.1285 171.24 89.3395L170.142 89.0895C170.272 88.7249 170.462 88.4306 170.712 88.2067C170.965 87.9801 171.255 87.816 171.583 87.7145C171.912 87.6103 172.257 87.5582 172.619 87.5582C172.858 87.5582 173.112 87.5869 173.38 87.6442C173.651 87.6989 173.904 87.8004 174.138 87.9489C174.375 88.0973 174.569 88.3095 174.72 88.5856C174.871 88.859 174.947 89.2145 174.947 89.652V93.6364H173.806V92.816H173.759C173.684 92.9671 173.57 93.1155 173.419 93.2614C173.268 93.4072 173.074 93.5283 172.837 93.6246C172.6 93.721 172.317 93.7692 171.986 93.7692ZM172.24 92.8317C172.563 92.8317 172.839 92.7679 173.068 92.6403C173.3 92.5127 173.475 92.346 173.595 92.1403C173.718 91.9319 173.779 91.7093 173.779 91.4723V90.6989C173.737 90.7405 173.656 90.7796 173.537 90.816C173.419 90.8499 173.285 90.8798 173.134 90.9059C172.983 90.9293 172.836 90.9515 172.693 90.9723C172.55 90.9905 172.43 91.0061 172.333 91.0192C172.107 91.0478 171.9 91.096 171.712 91.1637C171.528 91.2314 171.379 91.3291 171.267 91.4567C171.158 91.5817 171.103 91.7483 171.103 91.9567C171.103 92.2457 171.21 92.4645 171.423 92.6129C171.637 92.7587 171.909 92.8317 172.24 92.8317ZM180.999 89.1012L179.94 89.2887C179.896 89.1533 179.825 89.0244 179.729 88.902C179.635 88.7796 179.508 88.6793 179.346 88.6012C179.185 88.5231 178.983 88.484 178.741 88.484C178.41 88.484 178.134 88.5582 177.913 88.7067C177.691 88.8525 177.581 89.0413 177.581 89.2731C177.581 89.4736 177.655 89.6351 177.803 89.7574C177.952 89.8798 178.191 89.9801 178.522 90.0582L179.475 90.277C180.027 90.4046 180.439 90.6012 180.709 90.8668C180.98 91.1324 181.116 91.4775 181.116 91.902C181.116 92.2614 181.012 92.5817 180.803 92.8629C180.597 93.1416 180.31 93.3603 179.94 93.5192C179.573 93.678 179.147 93.7574 178.663 93.7574C177.991 93.7574 177.443 93.6142 177.018 93.3278C176.594 93.0387 176.333 92.6285 176.237 92.0973L177.366 91.9254C177.436 92.2197 177.581 92.4423 177.799 92.5934C178.018 92.7418 178.303 92.816 178.655 92.816C179.038 92.816 179.344 92.7366 179.573 92.5778C179.802 92.4163 179.917 92.2197 179.917 91.9879C179.917 91.8004 179.846 91.6429 179.706 91.5153C179.568 91.3877 179.355 91.2913 179.069 91.2262L178.053 91.0035C177.493 90.8759 177.079 90.6728 176.811 90.3942C176.545 90.1155 176.413 89.7627 176.413 89.3356C176.413 88.9814 176.512 88.6715 176.709 88.4059C176.907 88.1403 177.181 87.9332 177.53 87.7848C177.879 87.6337 178.278 87.5582 178.729 87.5582C179.377 87.5582 179.888 87.6989 180.26 87.9801C180.633 88.2587 180.879 88.6324 180.999 89.1012ZM183.474 91.6012L183.466 90.1754H183.669L186.06 87.6364H187.458L184.732 90.527H184.548L183.474 91.6012ZM182.4 93.6364V85.6364H183.568V93.6364H182.4ZM186.189 93.6364L184.041 90.7848L184.845 89.9684L187.623 93.6364H186.189Z" fill="black"/>
<path d="M370.889 88.0114V90.6364H370.218V86.2727H370.866V86.9545H370.923C371.025 86.7329 371.18 86.5549 371.389 86.4204C371.597 86.2841 371.866 86.2159 372.195 86.2159C372.491 86.2159 372.749 86.2765 372.971 86.3977C373.193 86.517 373.365 86.6989 373.488 86.9432C373.611 87.1856 373.673 87.4924 373.673 87.8636V90.6364H373.002V87.9091C373.002 87.5663 372.913 87.2992 372.735 87.1079C372.557 86.9148 372.313 86.8182 372.002 86.8182C371.788 86.8182 371.597 86.8646 371.428 86.9574C371.262 87.0502 371.13 87.1856 371.033 87.3636C370.937 87.5417 370.889 87.7576 370.889 88.0114ZM376.671 90.7273C376.277 90.7273 375.931 90.6335 375.634 90.446C375.338 90.2585 375.107 89.9962 374.94 89.6591C374.776 89.322 374.693 88.928 374.693 88.4773C374.693 88.0227 374.776 87.6259 374.94 87.2869C375.107 86.9479 375.338 86.6846 375.634 86.4971C375.931 86.3096 376.277 86.2159 376.671 86.2159C377.064 86.2159 377.409 86.3096 377.705 86.4971C378.002 86.6846 378.233 86.9479 378.398 87.2869C378.564 87.6259 378.648 88.0227 378.648 88.4773C378.648 88.928 378.564 89.322 378.398 89.6591C378.233 89.9962 378.002 90.2585 377.705 90.446C377.409 90.6335 377.064 90.7273 376.671 90.7273ZM376.671 90.125C376.97 90.125 377.216 90.0483 377.409 89.8949C377.602 89.7415 377.745 89.5398 377.838 89.2898C377.931 89.0398 377.977 88.7689 377.977 88.4773C377.977 88.1856 377.931 87.9138 377.838 87.6619C377.745 87.41 377.602 87.2064 377.409 87.0511C377.216 86.8958 376.97 86.8182 376.671 86.8182C376.371 86.8182 376.125 86.8958 375.932 87.0511C375.739 87.2064 375.596 87.41 375.503 87.6619C375.41 87.9138 375.364 88.1856 375.364 88.4773C375.364 88.7689 375.41 89.0398 375.503 89.2898C375.596 89.5398 375.739 89.7415 375.932 89.8949C376.125 90.0483 376.371 90.125 376.671 90.125ZM380.511 90.6364L379.182 86.2727H379.886L380.83 89.6136H380.875L381.807 86.2727H382.523L383.443 89.6023H383.489L384.432 86.2727H385.136L383.807 90.6364H383.148L382.193 87.2841H382.125L381.171 90.6364H380.511Z" fill="#5C5B5B"/>
<path d="M96.6362 99.2273C96.6362 95.5621 99.6074 92.5909 103.273 92.5909H120.959C124.624 92.5909 127.595 95.5621 127.595 99.2273V116.913C127.595 120.579 124.624 123.55 120.959 123.55H103.273C99.6074 123.55 96.6362 120.579 96.6362 116.913V99.2273Z" fill="#F0E5F6"/>
<path d="M114.309 110.978C114.26 110.433 113.55 110.249 113.095 110.33C112.805 110.381 112.543 110.571 112.288 110.704C111.986 110.862 111.68 111.013 111.365 111.142C110.75 111.394 110.097 111.575 109.428 111.577C108.733 111.577 108.04 111.396 107.413 111.103C106.722 110.781 106.097 110.338 105.516 109.851C105.254 109.632 104.874 110.007 105.137 110.228C106.145 111.072 107.297 111.819 108.619 112.038C109.969 112.263 111.233 111.843 112.423 111.235C112.584 111.153 112.745 111.067 112.904 110.98C113.019 110.918 113.127 110.857 113.258 110.844C113.38 110.834 113.488 110.85 113.604 110.898C113.65 110.917 113.702 110.941 113.741 110.972C113.761 110.988 113.778 111.021 113.773 110.979C113.787 111.122 113.887 111.246 114.041 111.246C114.176 111.246 114.322 111.123 114.309 110.979V110.978Z" fill="#313842"/>
<path d="M102.434 110.362V108.361L102.44 105.992H103.217V106.996C103.217 107.082 103.217 107.171 103.21 107.26C103.205 107.351 103.198 107.442 103.185 107.537C103.173 107.633 103.16 107.726 103.144 107.82C103.13 107.915 103.114 108.009 103.098 108.102H103.221C103.283 107.883 103.358 107.697 103.449 107.542C103.54 107.387 103.654 107.267 103.793 107.185C103.931 107.103 104.107 107.062 104.316 107.062C104.689 107.062 104.969 107.191 105.156 107.453C105.343 107.715 105.436 108.109 105.436 108.639V110.362H104.648V108.748C104.648 108.396 104.596 108.134 104.489 107.965C104.382 107.797 104.225 107.713 104.016 107.713C103.847 107.713 103.706 107.765 103.595 107.87C103.481 107.974 103.394 108.113 103.33 108.289C103.267 108.464 103.226 108.657 103.21 108.871V110.362H102.434Z" fill="#313842"/>
<path d="M107.537 110.023C107.221 110.023 106.943 109.957 106.702 109.825C106.46 109.693 106.274 109.502 106.135 109.249C105.998 108.997 105.928 108.687 105.928 108.316C105.928 107.945 105.998 107.631 106.137 107.381C106.276 107.13 106.467 106.944 106.711 106.821C106.952 106.698 107.228 106.636 107.535 106.636C107.842 106.636 108.124 106.7 108.366 106.827C108.607 106.955 108.798 107.144 108.939 107.397C109.078 107.649 109.149 107.961 109.149 108.337C109.149 108.712 109.078 109.026 108.937 109.277C108.796 109.525 108.602 109.712 108.359 109.837C108.115 109.962 107.84 110.026 107.537 110.026V110.023ZM107.569 109.427C107.742 109.427 107.885 109.386 108.004 109.306C108.122 109.227 108.213 109.106 108.277 108.947C108.343 108.787 108.375 108.596 108.375 108.373C108.375 108.139 108.341 107.938 108.272 107.772C108.204 107.606 108.106 107.478 107.981 107.387C107.853 107.296 107.699 107.251 107.512 107.251C107.348 107.251 107.205 107.292 107.084 107.371C106.963 107.451 106.87 107.57 106.804 107.727C106.738 107.884 106.706 108.075 106.706 108.305C106.706 108.667 106.784 108.942 106.936 109.136C107.091 109.329 107.3 109.425 107.567 109.425L107.569 109.427Z" fill="#A020F0"/>
<path d="M111.415 109.456C111.099 109.456 110.821 109.39 110.58 109.258C110.339 109.126 110.152 108.935 110.013 108.683C109.877 108.43 109.806 108.12 109.806 107.749C109.806 107.378 109.877 107.064 110.016 106.814C110.154 106.563 110.346 106.377 110.589 106.254C110.83 106.131 111.106 106.069 111.413 106.069C111.721 106.069 112.003 106.133 112.244 106.261C112.485 106.388 112.677 106.577 112.818 106.83C112.957 107.082 113.027 107.394 113.027 107.77C113.027 108.145 112.957 108.459 112.815 108.71C112.674 108.958 112.481 109.145 112.237 109.27C111.994 109.395 111.718 109.459 111.415 109.459V109.456ZM111.447 108.86C111.62 108.86 111.764 108.819 111.882 108.739C112.001 108.66 112.092 108.539 112.155 108.38C112.221 108.22 112.253 108.029 112.253 107.806C112.253 107.572 112.219 107.371 112.151 107.205C112.082 107.039 111.985 106.912 111.859 106.821C111.732 106.729 111.577 106.684 111.39 106.684C111.227 106.684 111.083 106.725 110.963 106.805C110.842 106.884 110.749 107.003 110.683 107.16C110.617 107.317 110.585 107.508 110.585 107.738C110.585 108.1 110.662 108.375 110.815 108.569C110.969 108.762 111.179 108.858 111.445 108.858L111.447 108.86Z" fill="#A020F0"/>
<path d="M113.724 111.385L113.717 108.774L113.724 107.142H114.377L114.371 108.009L114.468 108.02C114.514 107.815 114.582 107.642 114.671 107.499C114.762 107.358 114.88 107.249 115.026 107.173C115.172 107.098 115.34 107.06 115.534 107.06C115.825 107.06 116.071 107.132 116.274 107.276C116.474 107.419 116.626 107.62 116.729 107.877C116.831 108.134 116.884 108.43 116.884 108.767C116.884 109.104 116.836 109.372 116.743 109.625C116.649 109.878 116.503 110.078 116.312 110.226C116.121 110.374 115.88 110.447 115.591 110.447C115.377 110.447 115.199 110.403 115.056 110.319C114.912 110.235 114.794 110.121 114.705 109.978C114.614 109.834 114.541 109.668 114.484 109.479L114.373 109.472C114.402 109.586 114.425 109.702 114.441 109.821C114.457 109.937 114.471 110.053 114.484 110.167C114.496 110.281 114.503 110.388 114.503 110.49V111.382H113.726L113.724 111.385ZM115.331 109.814C115.491 109.814 115.625 109.768 115.734 109.677C115.843 109.586 115.928 109.463 115.989 109.309C116.05 109.154 116.082 108.969 116.082 108.76C116.082 108.551 116.05 108.362 115.989 108.207C115.928 108.05 115.839 107.929 115.725 107.843C115.611 107.756 115.475 107.713 115.32 107.713C115.183 107.713 115.065 107.745 114.96 107.806C114.855 107.868 114.769 107.95 114.701 108.05C114.632 108.15 114.582 108.259 114.55 108.373C114.516 108.489 114.5 108.598 114.5 108.705V108.817C114.5 108.894 114.509 108.978 114.532 109.07C114.553 109.161 114.585 109.249 114.63 109.338C114.676 109.427 114.733 109.507 114.799 109.575C114.867 109.645 114.944 109.702 115.033 109.748C115.122 109.793 115.222 109.816 115.331 109.816V109.814Z" fill="#313842"/>
<path d="M117.599 110.362V105.99H118.368V110.362H117.599Z" fill="#313842"/>
<path d="M120.981 110.403C120.722 110.449 120.487 110.451 120.273 110.413C120.059 110.374 119.873 110.296 119.711 110.18C119.549 110.064 119.415 109.916 119.313 109.732C119.21 109.548 119.135 109.329 119.09 109.074C119.044 108.819 119.039 108.587 119.071 108.364C119.103 108.141 119.171 107.94 119.278 107.761C119.385 107.581 119.527 107.433 119.704 107.317C119.882 107.201 120.091 107.121 120.335 107.078C120.578 107.034 120.785 107.037 120.981 107.078C121.179 107.121 121.352 107.207 121.5 107.34C121.648 107.472 121.773 107.645 121.873 107.859C121.974 108.072 122.044 108.33 122.085 108.63L119.606 109.081L119.529 108.639L121.557 108.268L121.327 108.56C121.311 108.325 121.261 108.138 121.175 108.002C121.09 107.865 120.983 107.772 120.856 107.72C120.728 107.67 120.592 107.656 120.446 107.683C120.285 107.713 120.15 107.781 120.041 107.888C119.934 107.997 119.859 108.138 119.82 108.314C119.782 108.489 119.782 108.694 119.823 108.928C119.884 109.279 120.007 109.529 120.191 109.675C120.376 109.821 120.606 109.871 120.881 109.823C121.002 109.802 121.102 109.768 121.179 109.723C121.257 109.677 121.318 109.625 121.366 109.561C121.414 109.497 121.448 109.431 121.471 109.361C121.493 109.29 121.509 109.22 121.518 109.151L122.21 109.179C122.201 109.336 122.169 109.477 122.119 109.607C122.069 109.736 121.994 109.855 121.894 109.962C121.794 110.069 121.669 110.16 121.521 110.23C121.37 110.303 121.191 110.358 120.981 110.394V110.403Z" fill="#313842"/>
<path d="M103.214 105.159H102.438V105.99H103.214V105.159Z" fill="#313842"/>
<path d="M136.793 110V103.455H140.743V104.158H137.585V106.369H140.538V107.072H137.585V109.297H140.794V110H136.793ZM146.083 105.091L144.268 110H143.501L141.686 105.091H142.504L143.859 109.003H143.91L145.265 105.091H146.083ZM148.961 110.102C148.488 110.102 148.08 109.998 147.737 109.789C147.396 109.578 147.133 109.284 146.948 108.907C146.765 108.528 146.673 108.087 146.673 107.584C146.673 107.081 146.765 106.638 146.948 106.254C147.133 105.869 147.391 105.568 147.721 105.353C148.054 105.136 148.442 105.027 148.885 105.027C149.14 105.027 149.393 105.07 149.642 105.155C149.892 105.24 150.118 105.379 150.323 105.57C150.528 105.76 150.691 106.011 150.812 106.325C150.933 106.638 150.994 107.023 150.994 107.482V107.801H147.21V107.149H150.227C150.227 106.872 150.172 106.625 150.061 106.408C149.952 106.19 149.797 106.019 149.594 105.893C149.394 105.767 149.157 105.705 148.885 105.705C148.584 105.705 148.324 105.779 148.105 105.928C147.888 106.075 147.72 106.267 147.603 106.504C147.486 106.74 147.427 106.994 147.427 107.264V107.699C147.427 108.07 147.491 108.384 147.619 108.642C147.749 108.897 147.929 109.092 148.159 109.227C148.389 109.359 148.657 109.425 148.961 109.425C149.16 109.425 149.339 109.397 149.498 109.342C149.66 109.284 149.8 109.199 149.917 109.086C150.034 108.971 150.125 108.828 150.189 108.658L150.917 108.862C150.841 109.109 150.712 109.327 150.531 109.514C150.35 109.7 150.126 109.844 149.86 109.949C149.593 110.051 149.294 110.102 148.961 110.102ZM152.896 107.047V110H152.142V105.091H152.87V105.858H152.934C153.049 105.609 153.224 105.408 153.458 105.257C153.693 105.104 153.995 105.027 154.366 105.027C154.698 105.027 154.989 105.095 155.238 105.232C155.488 105.366 155.682 105.57 155.82 105.845C155.959 106.118 156.028 106.463 156.028 106.881V110H155.274V106.932C155.274 106.546 155.173 106.246 154.973 106.031C154.773 105.813 154.498 105.705 154.149 105.705C153.908 105.705 153.693 105.757 153.503 105.861C153.316 105.966 153.167 106.118 153.059 106.318C152.95 106.518 152.896 106.761 152.896 107.047ZM159.541 105.091V105.73H156.997V105.091H159.541ZM157.739 103.915H158.493V108.594C158.493 108.807 158.524 108.967 158.585 109.073C158.649 109.178 158.73 109.248 158.828 109.284C158.929 109.318 159.034 109.335 159.145 109.335C159.228 109.335 159.296 109.331 159.349 109.322C159.403 109.312 159.445 109.303 159.477 109.297L159.631 109.974C159.579 109.994 159.508 110.013 159.416 110.032C159.325 110.053 159.209 110.064 159.068 110.064C158.855 110.064 158.646 110.018 158.442 109.926C158.239 109.835 158.071 109.695 157.937 109.508C157.805 109.32 157.739 109.084 157.739 108.798V103.915ZM163.309 103.455H164.255L166.48 108.888H166.556L168.781 103.455H169.727V110H168.985V105.027H168.921L166.876 110H166.16L164.115 105.027H164.051V110H163.309V103.455ZM172.658 110.115C172.347 110.115 172.065 110.056 171.811 109.939C171.558 109.82 171.357 109.648 171.207 109.425C171.058 109.199 170.984 108.926 170.984 108.607C170.984 108.325 171.039 108.097 171.15 107.923C171.261 107.746 171.409 107.607 171.594 107.507C171.779 107.407 171.984 107.332 172.208 107.283C172.434 107.232 172.661 107.192 172.888 107.162C173.187 107.124 173.429 107.095 173.614 107.076C173.801 107.054 173.938 107.019 174.023 106.97C174.11 106.921 174.154 106.836 174.154 106.714V106.689C174.154 106.374 174.068 106.129 173.895 105.954C173.725 105.779 173.466 105.692 173.119 105.692C172.759 105.692 172.476 105.771 172.272 105.928C172.067 106.086 171.923 106.254 171.84 106.433L171.124 106.178C171.252 105.879 171.423 105.647 171.636 105.481C171.851 105.312 172.085 105.195 172.339 105.129C172.594 105.061 172.846 105.027 173.093 105.027C173.251 105.027 173.432 105.046 173.636 105.085C173.843 105.121 174.042 105.196 174.234 105.311C174.428 105.426 174.589 105.6 174.717 105.832C174.844 106.065 174.908 106.376 174.908 106.766V110H174.154V109.335H174.116C174.065 109.442 173.979 109.556 173.86 109.677C173.741 109.799 173.582 109.902 173.384 109.987C173.186 110.072 172.944 110.115 172.658 110.115ZM172.773 109.438C173.072 109.438 173.323 109.379 173.528 109.262C173.734 109.145 173.89 108.993 173.994 108.808C174.101 108.623 174.154 108.428 174.154 108.223V107.533C174.122 107.571 174.052 107.606 173.943 107.638C173.837 107.668 173.713 107.695 173.572 107.718C173.434 107.739 173.299 107.759 173.167 107.776C173.037 107.79 172.931 107.803 172.85 107.814C172.654 107.839 172.471 107.881 172.3 107.939C172.132 107.994 171.996 108.078 171.891 108.191C171.789 108.302 171.738 108.453 171.738 108.645C171.738 108.907 171.835 109.105 172.029 109.239C172.225 109.371 172.473 109.438 172.773 109.438ZM179.762 106.19L179.085 106.382C179.042 106.269 178.979 106.159 178.896 106.053C178.815 105.944 178.704 105.855 178.564 105.784C178.423 105.714 178.243 105.679 178.024 105.679C177.723 105.679 177.473 105.748 177.273 105.887C177.074 106.023 176.975 106.197 176.975 106.408C176.975 106.595 177.044 106.743 177.18 106.852C177.316 106.961 177.529 107.051 177.819 107.124L178.548 107.303C178.987 107.409 179.314 107.572 179.529 107.792C179.744 108.009 179.852 108.289 179.852 108.632C179.852 108.913 179.771 109.165 179.609 109.386C179.449 109.608 179.225 109.783 178.938 109.911C178.65 110.038 178.316 110.102 177.934 110.102C177.434 110.102 177.019 109.994 176.691 109.776C176.363 109.559 176.155 109.241 176.068 108.824L176.784 108.645C176.852 108.909 176.981 109.107 177.17 109.239C177.362 109.371 177.612 109.438 177.921 109.438C178.273 109.438 178.552 109.363 178.759 109.214C178.968 109.062 179.072 108.881 179.072 108.67C179.072 108.5 179.012 108.357 178.893 108.242C178.774 108.125 178.59 108.038 178.343 107.98L177.525 107.788C177.076 107.682 176.745 107.517 176.534 107.293C176.326 107.067 176.221 106.785 176.221 106.446C176.221 106.169 176.299 105.924 176.454 105.711C176.612 105.498 176.826 105.331 177.097 105.209C177.37 105.088 177.679 105.027 178.024 105.027C178.509 105.027 178.891 105.134 179.168 105.347C179.447 105.56 179.645 105.841 179.762 106.19ZM183.122 105.091V105.73H180.578V105.091H183.122ZM181.32 103.915H182.074V108.594C182.074 108.807 182.105 108.967 182.167 109.073C182.23 109.178 182.311 109.248 182.409 109.284C182.51 109.318 182.615 109.335 182.726 109.335C182.809 109.335 182.877 109.331 182.93 109.322C182.984 109.312 183.026 109.303 183.058 109.297L183.212 109.974C183.161 109.994 183.089 110.013 182.998 110.032C182.906 110.053 182.79 110.064 182.649 110.064C182.436 110.064 182.227 110.018 182.023 109.926C181.82 109.835 181.652 109.695 181.518 109.508C181.386 109.32 181.32 109.084 181.32 108.798V103.915ZM186.262 110.102C185.789 110.102 185.381 109.998 185.038 109.789C184.697 109.578 184.434 109.284 184.249 108.907C184.066 108.528 183.974 108.087 183.974 107.584C183.974 107.081 184.066 106.638 184.249 106.254C184.434 105.869 184.692 105.568 185.022 105.353C185.355 105.136 185.742 105.027 186.186 105.027C186.441 105.027 186.694 105.07 186.943 105.155C187.192 105.24 187.419 105.379 187.624 105.57C187.828 105.76 187.991 106.011 188.113 106.325C188.234 106.638 188.295 107.023 188.295 107.482V107.801H184.511V107.149H187.528C187.528 106.872 187.472 106.625 187.362 106.408C187.253 106.19 187.097 106.019 186.895 105.893C186.695 105.767 186.458 105.705 186.186 105.705C185.885 105.705 185.625 105.779 185.406 105.928C185.188 106.075 185.021 106.267 184.904 106.504C184.787 106.74 184.728 106.994 184.728 107.264V107.699C184.728 108.07 184.792 108.384 184.92 108.642C185.05 108.897 185.23 109.092 185.46 109.227C185.69 109.359 185.958 109.425 186.262 109.425C186.46 109.425 186.639 109.397 186.799 109.342C186.961 109.284 187.101 109.199 187.218 109.086C187.335 108.971 187.426 108.828 187.49 108.658L188.218 108.862C188.142 109.109 188.013 109.327 187.831 109.514C187.65 109.7 187.427 109.844 187.16 109.949C186.894 110.051 186.595 110.102 186.262 110.102ZM189.442 110V105.091H190.171V105.832H190.222C190.312 105.589 190.474 105.392 190.708 105.241C190.942 105.09 191.206 105.014 191.501 105.014C191.556 105.014 191.625 105.015 191.708 105.017C191.791 105.02 191.854 105.023 191.897 105.027V105.794C191.871 105.788 191.813 105.778 191.721 105.765C191.632 105.75 191.537 105.743 191.437 105.743C191.198 105.743 190.985 105.793 190.797 105.893C190.612 105.991 190.465 106.127 190.356 106.302C190.25 106.475 190.197 106.672 190.197 106.893V110H189.442ZM196.613 110L194.824 103.455H195.629L196.997 108.786H197.061L198.454 103.455H199.349L200.743 108.786H200.807L202.174 103.455H202.98L201.19 110H200.372L198.927 104.784H198.876L197.432 110H196.613ZM204.76 103.455V110H203.967V103.455H204.76ZM208.369 110H206.349V103.455H208.459C209.094 103.455 209.637 103.586 210.089 103.848C210.54 104.108 210.887 104.482 211.127 104.969C211.368 105.455 211.488 106.037 211.488 106.714C211.488 107.396 211.367 107.983 211.124 108.475C210.881 108.966 210.528 109.343 210.063 109.607C209.599 109.869 209.034 110 208.369 110ZM207.142 109.297H208.318C208.859 109.297 209.308 109.192 209.664 108.984C210.019 108.775 210.285 108.478 210.459 108.092C210.634 107.706 210.721 107.247 210.721 106.714C210.721 106.186 210.635 105.731 210.463 105.35C210.29 104.966 210.032 104.672 209.689 104.468C209.346 104.261 208.919 104.158 208.407 104.158H207.142V109.297ZM212.818 110V103.455H216.768V104.158H213.611V106.369H216.564V107.072H213.611V109.297H216.819V110H212.818ZM218.197 103.455H219.143L221.367 108.888H221.444L223.669 103.455H224.615V110H223.873V105.027H223.809L221.764 110H221.048L219.002 105.027H218.938V110H218.197V103.455ZM226.996 103.455V110H226.204V103.455H226.996ZM233.776 103.455V110H233.009L229.442 104.861H229.378V110H228.586V103.455H229.353L232.932 108.607H232.996V103.455H233.776ZM237.791 110V105.091H238.545V110H237.791ZM238.174 104.273C238.027 104.273 237.901 104.223 237.794 104.123C237.69 104.022 237.638 103.902 237.638 103.761C237.638 103.621 237.69 103.5 237.794 103.4C237.901 103.3 238.027 103.25 238.174 103.25C238.321 103.25 238.447 103.3 238.552 103.4C238.658 103.5 238.711 103.621 238.711 103.761C238.711 103.902 238.658 104.022 238.552 104.123C238.447 104.223 238.321 104.273 238.174 104.273ZM240.681 107.047V110H239.927V105.091H240.655V105.858H240.719C240.834 105.609 241.009 105.408 241.243 105.257C241.478 105.104 241.78 105.027 242.151 105.027C242.483 105.027 242.774 105.095 243.024 105.232C243.273 105.366 243.467 105.57 243.605 105.845C243.744 106.118 243.813 106.463 243.813 106.881V110H243.059V106.932C243.059 106.546 242.959 106.246 242.758 106.031C242.558 105.813 242.283 105.705 241.934 105.705C241.693 105.705 241.478 105.757 241.288 105.861C241.101 105.966 240.953 106.118 240.844 106.318C240.735 106.518 240.681 106.761 240.681 107.047ZM249.781 110.102C249.308 110.102 248.9 109.998 248.557 109.789C248.216 109.578 247.953 109.284 247.767 108.907C247.584 108.528 247.492 108.087 247.492 107.584C247.492 107.081 247.584 106.638 247.767 106.254C247.953 105.869 248.21 105.568 248.541 105.353C248.873 105.136 249.261 105.027 249.704 105.027C249.96 105.027 250.212 105.07 250.462 105.155C250.711 105.24 250.938 105.379 251.142 105.57C251.347 105.76 251.51 106.011 251.631 106.325C251.753 106.638 251.813 107.023 251.813 107.482V107.801H248.029V107.149H251.046C251.046 106.872 250.991 106.625 250.88 106.408C250.772 106.19 250.616 106.019 250.414 105.893C250.213 105.767 249.977 105.705 249.704 105.705C249.404 105.705 249.144 105.779 248.924 105.928C248.707 106.075 248.54 106.267 248.422 106.504C248.305 106.74 248.247 106.994 248.247 107.264V107.699C248.247 108.07 248.311 108.384 248.438 108.642C248.568 108.897 248.748 109.092 248.979 109.227C249.209 109.359 249.476 109.425 249.781 109.425C249.979 109.425 250.158 109.397 250.318 109.342C250.48 109.284 250.619 109.199 250.736 109.086C250.854 108.971 250.944 108.828 251.008 108.658L251.737 108.862C251.66 109.109 251.531 109.327 251.35 109.514C251.169 109.7 250.945 109.844 250.679 109.949C250.413 110.051 250.113 110.102 249.781 110.102ZM256.826 105.091L255.01 110H254.243L252.428 105.091H253.246L254.601 109.003H254.652L256.007 105.091H256.826ZM259.704 110.102C259.231 110.102 258.823 109.998 258.48 109.789C258.139 109.578 257.876 109.284 257.69 108.907C257.507 108.528 257.415 108.087 257.415 107.584C257.415 107.081 257.507 106.638 257.69 106.254C257.876 105.869 258.133 105.568 258.464 105.353C258.796 105.136 259.184 105.027 259.627 105.027C259.883 105.027 260.135 105.07 260.384 105.155C260.634 105.24 260.861 105.379 261.065 105.57C261.27 105.76 261.433 106.011 261.554 106.325C261.676 106.638 261.736 107.023 261.736 107.482V107.801H257.952V107.149H260.969C260.969 106.872 260.914 106.625 260.803 106.408C260.694 106.19 260.539 106.019 260.336 105.893C260.136 105.767 259.9 105.705 259.627 105.705C259.327 105.705 259.067 105.779 258.847 105.928C258.63 106.075 258.463 106.267 258.345 106.504C258.228 106.74 258.17 106.994 258.17 107.264V107.699C258.17 108.07 258.233 108.384 258.361 108.642C258.491 108.897 258.671 109.092 258.901 109.227C259.132 109.359 259.399 109.425 259.704 109.425C259.902 109.425 260.081 109.397 260.241 109.342C260.403 109.284 260.542 109.199 260.659 109.086C260.776 108.971 260.867 108.828 260.931 108.658L261.66 108.862C261.583 109.109 261.454 109.327 261.273 109.514C261.092 109.7 260.868 109.844 260.602 109.949C260.335 110.051 260.036 110.102 259.704 110.102ZM263.638 107.047V110H262.884V105.091H263.612V105.858H263.676C263.791 105.609 263.966 105.408 264.2 105.257C264.435 105.104 264.737 105.027 265.108 105.027C265.441 105.027 265.731 105.095 265.981 105.232C266.23 105.366 266.424 105.57 266.562 105.845C266.701 106.118 266.77 106.463 266.77 106.881V110H266.016V106.932C266.016 106.546 265.916 106.246 265.715 106.031C265.515 105.813 265.24 105.705 264.891 105.705C264.65 105.705 264.435 105.757 264.245 105.861C264.058 105.966 263.91 106.118 263.801 106.318C263.692 106.518 263.638 106.761 263.638 107.047ZM270.283 105.091V105.73H267.739V105.091H270.283ZM268.481 103.915H269.235V108.594C269.235 108.807 269.266 108.967 269.328 109.073C269.392 109.178 269.473 109.248 269.571 109.284C269.671 109.318 269.776 109.335 269.887 109.335C269.97 109.335 270.038 109.331 270.092 109.322C270.145 109.312 270.187 109.303 270.219 109.297L270.373 109.974C270.322 109.994 270.25 110.013 270.159 110.032C270.067 110.053 269.951 110.064 269.81 110.064C269.597 110.064 269.388 110.018 269.184 109.926C268.981 109.835 268.813 109.695 268.679 109.508C268.547 109.32 268.481 109.084 268.481 108.798V103.915ZM275.24 110L273.451 103.455H274.256L275.624 108.786H275.688L277.081 103.455H277.976L279.37 108.786H279.434L280.801 103.455H281.607L279.817 110H278.999L277.554 104.784H277.503L276.059 110H275.24ZM283.387 103.455V110H282.594V103.455H283.387ZM286.996 110H284.976V103.455H287.086C287.721 103.455 288.264 103.586 288.716 103.848C289.167 104.108 289.513 104.482 289.754 104.969C289.995 105.455 290.115 106.037 290.115 106.714C290.115 107.396 289.994 107.983 289.751 108.475C289.508 108.966 289.154 109.343 288.69 109.607C288.225 109.869 287.661 110 286.996 110ZM285.769 109.297H286.945C287.486 109.297 287.935 109.192 288.29 108.984C288.646 108.775 288.912 108.478 289.086 108.092C289.261 107.706 289.348 107.247 289.348 106.714C289.348 106.186 289.262 105.731 289.089 105.35C288.917 104.966 288.659 104.672 288.316 104.468C287.973 104.261 287.546 104.158 287.034 104.158H285.769V109.297ZM291.445 110V103.455H295.395V104.158H292.238V106.369H295.191V107.072H292.238V109.297H295.446V110H291.445ZM304.622 105.5H303.83C303.783 105.272 303.701 105.072 303.583 104.899C303.468 104.727 303.328 104.582 303.162 104.464C302.998 104.345 302.815 104.256 302.615 104.196C302.415 104.136 302.206 104.107 301.989 104.107C301.592 104.107 301.233 104.207 300.912 104.407C300.592 104.607 300.337 104.902 300.148 105.292C299.96 105.682 299.866 106.161 299.866 106.727C299.866 107.294 299.96 107.772 300.148 108.162C300.337 108.552 300.592 108.847 300.912 109.048C301.233 109.248 301.592 109.348 301.989 109.348C302.206 109.348 302.415 109.318 302.615 109.259C302.815 109.199 302.998 109.11 303.162 108.993C303.328 108.874 303.468 108.728 303.583 108.555C303.701 108.381 303.783 108.18 303.83 107.955H304.622C304.563 108.289 304.454 108.588 304.296 108.853C304.138 109.117 303.942 109.342 303.708 109.527C303.474 109.71 303.211 109.85 302.919 109.946C302.629 110.042 302.319 110.089 301.989 110.089C301.43 110.089 300.934 109.953 300.499 109.68C300.065 109.408 299.723 109.02 299.473 108.517C299.224 108.014 299.099 107.418 299.099 106.727C299.099 106.037 299.224 105.44 299.473 104.938C299.723 104.435 300.065 104.047 300.499 103.774C300.934 103.501 301.43 103.365 301.989 103.365C302.319 103.365 302.629 103.413 302.919 103.509C303.211 103.605 303.474 103.745 303.708 103.931C303.942 104.114 304.138 104.338 304.296 104.602C304.454 104.864 304.563 105.163 304.622 105.5ZM307.795 110.102C307.352 110.102 306.963 109.997 306.628 109.786C306.296 109.575 306.036 109.28 305.849 108.901C305.663 108.521 305.571 108.078 305.571 107.571C305.571 107.06 305.663 106.613 305.849 106.232C306.036 105.85 306.296 105.554 306.628 105.343C306.963 105.132 307.352 105.027 307.795 105.027C308.238 105.027 308.626 105.132 308.958 105.343C309.293 105.554 309.553 105.85 309.738 106.232C309.926 106.613 310.019 107.06 310.019 107.571C310.019 108.078 309.926 108.521 309.738 108.901C309.553 109.28 309.293 109.575 308.958 109.786C308.626 109.997 308.238 110.102 307.795 110.102ZM307.795 109.425C308.132 109.425 308.409 109.338 308.626 109.166C308.843 108.993 309.004 108.766 309.109 108.485C309.213 108.204 309.265 107.899 309.265 107.571C309.265 107.243 309.213 106.937 309.109 106.654C309.004 106.37 308.843 106.141 308.626 105.967C308.409 105.792 308.132 105.705 307.795 105.705C307.458 105.705 307.181 105.792 306.964 105.967C306.747 106.141 306.586 106.37 306.481 106.654C306.377 106.937 306.325 107.243 306.325 107.571C306.325 107.899 306.377 108.204 306.481 108.485C306.586 108.766 306.747 108.993 306.964 109.166C307.181 109.338 307.458 109.425 307.795 109.425ZM311.171 110V105.091H311.9V105.858H311.963C312.066 105.596 312.231 105.392 312.459 105.248C312.687 105.1 312.961 105.027 313.28 105.027C313.604 105.027 313.874 105.1 314.089 105.248C314.306 105.392 314.475 105.596 314.597 105.858H314.648C314.774 105.604 314.962 105.403 315.214 105.254C315.465 105.103 315.767 105.027 316.118 105.027C316.557 105.027 316.916 105.164 317.195 105.439C317.474 105.712 317.614 106.137 317.614 106.714V110H316.86V106.714C316.86 106.352 316.761 106.093 316.562 105.938C316.364 105.782 316.131 105.705 315.863 105.705C315.517 105.705 315.25 105.809 315.06 106.018C314.871 106.224 314.776 106.487 314.776 106.804V110H314.009V106.638C314.009 106.359 313.918 106.134 313.737 105.963C313.556 105.791 313.323 105.705 313.037 105.705C312.841 105.705 312.658 105.757 312.488 105.861C312.319 105.966 312.183 106.11 312.078 106.296C311.976 106.479 311.925 106.691 311.925 106.932V110H311.171ZM318.993 110V105.091H319.722V105.858H319.786C319.888 105.596 320.053 105.392 320.281 105.248C320.509 105.1 320.783 105.027 321.102 105.027C321.426 105.027 321.696 105.1 321.911 105.248C322.128 105.392 322.298 105.596 322.419 105.858H322.47C322.596 105.604 322.785 105.403 323.036 105.254C323.287 105.103 323.589 105.027 323.941 105.027C324.379 105.027 324.738 105.164 325.018 105.439C325.297 105.712 325.436 106.137 325.436 106.714V110H324.682V106.714C324.682 106.352 324.583 106.093 324.385 105.938C324.187 105.782 323.953 105.705 323.685 105.705C323.34 105.705 323.072 105.809 322.883 106.018C322.693 106.224 322.598 106.487 322.598 106.804V110H321.831V106.638C321.831 106.359 321.741 106.134 321.559 105.963C321.378 105.791 321.145 105.705 320.86 105.705C320.664 105.705 320.48 105.757 320.31 105.861C320.142 105.966 320.005 106.11 319.901 106.296C319.798 106.479 319.747 106.691 319.747 106.932V110H318.993ZM329.909 107.993V105.091H330.663V110H329.909V109.169H329.858C329.743 109.418 329.564 109.63 329.321 109.805C329.078 109.978 328.771 110.064 328.401 110.064C328.094 110.064 327.821 109.997 327.582 109.863C327.344 109.726 327.156 109.522 327.02 109.249C326.884 108.974 326.815 108.628 326.815 108.21V105.091H327.57V108.159C327.57 108.517 327.67 108.803 327.87 109.016C328.072 109.229 328.33 109.335 328.643 109.335C328.831 109.335 329.022 109.287 329.216 109.191C329.412 109.096 329.576 108.949 329.708 108.75C329.842 108.552 329.909 108.3 329.909 107.993ZM332.799 107.047V110H332.045V105.091H332.774V105.858H332.837C332.953 105.609 333.127 105.408 333.362 105.257C333.596 105.104 333.899 105.027 334.269 105.027C334.602 105.027 334.892 105.095 335.142 105.232C335.391 105.366 335.585 105.57 335.723 105.845C335.862 106.118 335.931 106.463 335.931 106.881V110H335.177V106.932C335.177 106.546 335.077 106.246 334.877 106.031C334.676 105.813 334.401 105.705 334.052 105.705C333.811 105.705 333.596 105.757 333.406 105.861C333.219 105.966 333.071 106.118 332.962 106.318C332.853 106.518 332.799 106.761 332.799 107.047ZM337.309 110V105.091H338.064V110H337.309ZM337.693 104.273C337.546 104.273 337.419 104.223 337.313 104.123C337.208 104.022 337.156 103.902 337.156 103.761C337.156 103.621 337.208 103.5 337.313 103.4C337.419 103.3 337.546 103.25 337.693 103.25C337.84 103.25 337.966 103.3 338.07 103.4C338.177 103.5 338.23 103.621 338.23 103.761C338.23 103.902 338.177 104.022 338.07 104.123C337.966 104.223 337.84 104.273 337.693 104.273ZM341.58 105.091V105.73H339.036V105.091H341.58ZM339.778 103.915H340.532V108.594C340.532 108.807 340.563 108.967 340.625 109.073C340.688 109.178 340.769 109.248 340.867 109.284C340.968 109.318 341.073 109.335 341.184 109.335C341.267 109.335 341.335 109.331 341.388 109.322C341.442 109.312 341.484 109.303 341.516 109.297L341.67 109.974C341.619 109.994 341.547 110.013 341.456 110.032C341.364 110.053 341.248 110.064 341.107 110.064C340.894 110.064 340.685 110.018 340.481 109.926C340.278 109.835 340.11 109.695 339.976 109.508C339.844 109.32 339.778 109.084 339.778 108.798V103.915ZM343.201 111.841C343.073 111.841 342.959 111.83 342.859 111.809C342.758 111.79 342.689 111.771 342.651 111.751L342.843 111.087C343.026 111.134 343.188 111.151 343.328 111.138C343.469 111.125 343.594 111.062 343.702 110.949C343.813 110.838 343.914 110.658 344.006 110.409L344.147 110.026L342.331 105.091H343.149L344.505 109.003H344.556L345.911 105.091H346.729L344.645 110.716C344.551 110.969 344.435 111.179 344.297 111.346C344.158 111.514 343.997 111.638 343.814 111.719C343.633 111.8 343.429 111.841 343.201 111.841ZM350.243 110V109.425L352.403 107.06C352.657 106.783 352.866 106.542 353.03 106.337C353.194 106.131 353.315 105.937 353.394 105.756C353.475 105.572 353.516 105.381 353.516 105.18C353.516 104.95 353.46 104.751 353.35 104.583C353.241 104.414 353.092 104.284 352.902 104.193C352.712 104.101 352.499 104.055 352.263 104.055C352.011 104.055 351.792 104.108 351.604 104.212C351.419 104.314 351.275 104.458 351.173 104.643C351.073 104.829 351.023 105.046 351.023 105.295H350.269C350.269 104.912 350.357 104.575 350.534 104.286C350.711 103.996 350.951 103.77 351.256 103.608C351.563 103.446 351.907 103.365 352.288 103.365C352.672 103.365 353.012 103.446 353.308 103.608C353.604 103.77 353.836 103.988 354.005 104.263C354.173 104.538 354.257 104.844 354.257 105.18C354.257 105.421 354.214 105.657 354.126 105.887C354.041 106.115 353.892 106.369 353.679 106.651C353.468 106.93 353.175 107.271 352.8 107.673L351.33 109.246V109.297H354.372V110H350.243ZM357.827 110.089C357.346 110.089 356.935 109.958 356.597 109.696C356.258 109.432 355.999 109.05 355.82 108.549C355.641 108.046 355.552 107.439 355.552 106.727C355.552 106.02 355.641 105.416 355.82 104.915C356.001 104.412 356.261 104.029 356.6 103.765C356.941 103.498 357.35 103.365 357.827 103.365C358.304 103.365 358.712 103.498 359.051 103.765C359.392 104.029 359.652 104.412 359.831 104.915C360.012 105.416 360.103 106.02 360.103 106.727C360.103 107.439 360.013 108.046 359.834 108.549C359.655 109.05 359.396 109.432 359.058 109.696C358.719 109.958 358.309 110.089 357.827 110.089ZM357.827 109.386C358.304 109.386 358.675 109.156 358.939 108.696C359.204 108.236 359.336 107.58 359.336 106.727C359.336 106.161 359.275 105.678 359.153 105.279C359.034 104.881 358.862 104.577 358.636 104.369C358.412 104.16 358.142 104.055 357.827 104.055C357.354 104.055 356.984 104.289 356.718 104.755C356.452 105.22 356.319 105.877 356.319 106.727C356.319 107.294 356.378 107.776 356.498 108.172C356.617 108.568 356.788 108.87 357.012 109.076C357.238 109.283 357.51 109.386 357.827 109.386ZM361.317 110V109.425L363.478 107.06C363.731 106.783 363.94 106.542 364.104 106.337C364.268 106.131 364.39 105.937 364.468 105.756C364.549 105.572 364.59 105.381 364.59 105.18C364.59 104.95 364.535 104.751 364.424 104.583C364.315 104.414 364.166 104.284 363.976 104.193C363.787 104.101 363.574 104.055 363.337 104.055C363.086 104.055 362.866 104.108 362.679 104.212C362.493 104.314 362.35 104.458 362.247 104.643C362.147 104.829 362.097 105.046 362.097 105.295H361.343C361.343 104.912 361.431 104.575 361.608 104.286C361.785 103.996 362.026 103.77 362.33 103.608C362.637 103.446 362.981 103.365 363.363 103.365C363.746 103.365 364.086 103.446 364.382 103.608C364.678 103.77 364.911 103.988 365.079 104.263C365.247 104.538 365.331 104.844 365.331 105.18C365.331 105.421 365.288 105.657 365.2 105.887C365.115 106.115 364.966 106.369 364.753 106.651C364.542 106.93 364.249 107.271 363.874 107.673L362.404 109.246V109.297H365.446V110H361.317ZM366.472 108.658V108.006L369.349 103.455H369.822V104.464H369.502L367.329 107.903V107.955H371.203V108.658H366.472ZM369.553 110V108.46V108.156V103.455H370.308V110H369.553Z" fill="#31343B"/>
</svg>
