<svg width="345" height="135" viewBox="0 0 345 135" fill="none" xmlns="http://www.w3.org/2000/svg">
<path d="M30.5088 41.2403L1.59357 9.96459C-1.91087 6.18241 0.742698 0 5.87678 0H16.318C17.9188 0 19.4475 0.654608 20.5579 1.81836L43.8632 26.2862C44.3391 26.7807 44.8871 27.1881 45.5073 27.4935L65.8128 37.5745C67.154 38.2437 68.1924 39.3929 68.7116 40.8185L71.6391 48.6738C71.9276 49.4593 72.3746 50.1575 72.9515 50.754L92.7956 71.0905C93.7907 72.1087 94.382 73.4616 94.4685 74.9017L95.8818 99.064C96.0116 101.202 94.9877 103.239 93.1994 104.388C91.9303 105.217 90.3872 105.508 88.9018 105.217L78.2154 103.108C77.3789 102.948 76.5857 102.599 75.9079 102.09L45.7092 80.0804C44.7429 79.3822 44.0074 78.3784 43.618 77.2583L31.7635 43.306C31.4895 42.535 31.0568 41.8222 30.5088 41.2403Z" fill="url(#paint0_linear_1438_457)"/>
<path d="M109.207 107.239L106.438 117.262C106.035 118.702 106.914 120.186 108.371 120.506L173.528 134.937C173.773 134.995 174.018 135.009 174.263 134.995L214.99 132.027C216.345 131.925 217.384 130.791 217.384 129.423V125.496C217.384 124.128 216.331 122.994 214.99 122.892L192.088 121.248C192.03 121.248 186.752 120.87 186.694 120.87L182.224 120.157C180.262 120.157 174.249 120.841 175.2 119.11C176.051 117.553 175.532 114.484 173.802 114.164L154.722 110.425C154.289 110.338 151.636 109.683 151.217 109.843L134.95 110.542C134.474 110.702 133.969 110.731 133.493 110.614L112.294 105.421C110.952 105.072 109.582 105.887 109.207 107.239Z" fill="url(#paint1_linear_1438_457)"/>
<path d="M228.661 127.038V128.085C228.661 130.092 230.349 131.678 232.324 131.547L288.035 127.969C288.554 127.94 289.044 127.794 289.491 127.532L305.023 118.79C307.288 117.509 307.403 114.266 305.225 112.84C304.519 112.374 303.653 112.2 302.817 112.316L231.56 123.59C229.901 123.852 228.661 125.307 228.661 127.038Z" fill="url(#paint2_linear_1438_457)"/>
<path d="M130.58 90.5396C131.258 90.7724 131.82 91.1797 132.253 91.7906C132.599 92.2852 132.83 92.8089 132.945 93.3908C133.075 93.9581 133.133 94.5109 133.133 95.02C133.133 96.3293 132.873 97.4348 132.354 98.3513C131.647 99.5732 130.551 100.184 129.08 100.184H124.869V90.3214H129.08C129.686 90.3214 130.176 90.4087 130.58 90.5396ZM126.845 92.0379V98.4676H128.72C129.686 98.4676 130.349 97.9876 130.739 97.0275C130.955 96.5038 131.056 95.8783 131.056 95.151C131.056 94.1472 130.897 93.3762 130.58 92.838C130.263 92.2998 129.643 92.0379 128.72 92.0379H126.845Z" fill="#231F20"/>
<path d="M140.17 90.3214H142.478L145.939 100.184H143.718L143.069 98.1622H139.478L138.815 100.184H136.68L140.17 90.3214ZM140.041 96.4602H142.55L141.31 92.5907L140.041 96.4602Z" fill="#231F20"/>
<path d="M156.452 93.3907C156.294 92.7216 155.919 92.2415 155.313 91.9797C154.981 91.8342 154.606 91.7615 154.188 91.7615C153.395 91.7615 152.76 92.067 152.241 92.6634C151.737 93.2598 151.477 94.1617 151.477 95.3691C151.477 96.5765 151.751 97.4348 152.299 97.9439C152.847 98.453 153.467 98.7003 154.174 98.7003C154.866 98.7003 155.414 98.4967 155.861 98.1039C156.294 97.7112 156.568 97.1875 156.669 96.5474H154.419V94.9036H158.486V100.199H157.13L156.928 98.9767C156.539 99.4422 156.178 99.7768 155.876 99.9659C155.342 100.3 154.664 100.461 153.885 100.461C152.587 100.461 151.535 100.01 150.698 99.1076C149.833 98.2057 149.4 96.9547 149.4 95.3837C149.4 93.798 149.833 92.5179 150.713 91.5433C151.592 90.5686 152.732 90.1031 154.174 90.1031C155.414 90.1031 156.409 90.4232 157.159 91.0632C157.909 91.7033 158.342 92.4888 158.457 93.4489H156.452V93.3907Z" fill="#231F20"/>
<path d="M165.956 90.3214H168.264L171.725 100.184H169.518L168.869 98.1622H165.278L164.615 100.184H162.466L165.956 90.3214ZM165.812 96.4602H168.321L167.081 92.5907L165.812 96.4602Z" fill="#231F20"/>
<path d="M175.633 90.3214H177.782L181.661 97.1875V90.3214H183.565V100.184H181.517L177.537 93.1871V100.184H175.633V90.3214Z" fill="#231F20"/>
<path d="M194.756 93.3907C194.597 92.7216 194.222 92.2415 193.617 91.9797C193.285 91.8342 192.91 91.7615 192.492 91.7615C191.699 91.7615 191.064 92.067 190.545 92.6634C190.04 93.2598 189.781 94.1617 189.781 95.3691C189.781 96.5765 190.055 97.4348 190.603 97.9439C191.151 98.453 191.771 98.7003 192.477 98.7003C193.17 98.7003 193.718 98.4967 194.165 98.1039C194.597 97.7112 194.871 97.1875 194.972 96.5474H192.723V94.9036H196.79V100.199H195.434L195.232 98.9767C194.843 99.4422 194.482 99.7768 194.179 99.9659C193.646 100.3 192.982 100.461 192.189 100.461C190.891 100.461 189.838 100.01 189.002 99.1076C188.137 98.2057 187.704 96.9547 187.704 95.3837C187.704 93.798 188.137 92.5179 189.016 91.5433C189.896 90.5686 191.035 90.1031 192.477 90.1031C193.718 90.1031 194.713 90.4232 195.463 91.0632C196.213 91.7033 196.645 92.4888 196.761 93.4489H194.756V93.3907Z" fill="#231F20"/>
<path d="M207.894 90.3214H210.029L213.908 97.1875V90.3214H215.812V100.184H213.764L209.783 93.1871V100.184H207.88L207.894 90.3214Z" fill="#231F20"/>
<path d="M220.455 90.3214H222.532V96.3729C222.532 97.0566 222.604 97.5366 222.763 97.8567C223.008 98.4095 223.542 98.6858 224.378 98.6858C225.2 98.6858 225.734 98.4095 225.979 97.8567C226.137 97.5366 226.224 97.0566 226.224 96.3729V90.3214H228.301V96.3729C228.301 97.4203 228.142 98.2349 227.825 98.8168C227.219 99.8787 226.08 100.417 224.392 100.417C222.705 100.417 221.551 99.8787 220.946 98.8168C220.628 98.2349 220.47 97.4203 220.47 96.3729L220.455 90.3214Z" fill="#231F20"/>
<path d="M234.43 97.1438C234.488 97.5948 234.617 97.9294 234.805 98.1476C235.136 98.5549 235.728 98.7586 236.535 98.7586C237.026 98.7586 237.43 98.7004 237.732 98.5985C238.309 98.3949 238.612 98.0167 238.612 97.4493C238.612 97.1293 238.468 96.8675 238.194 96.6929C237.905 96.5183 237.458 96.3729 236.838 96.2274L235.785 95.9946C234.747 95.7619 234.026 95.5146 233.637 95.2382C232.973 94.7873 232.642 94.0745 232.642 93.1144C232.642 92.227 232.959 91.4997 233.608 90.9178C234.257 90.3359 235.194 90.045 236.449 90.045C237.487 90.045 238.381 90.3214 239.117 90.8742C239.852 91.4269 240.242 92.227 240.271 93.2744H238.324C238.28 92.678 238.021 92.2707 237.53 92.0088C237.213 91.8488 236.795 91.7615 236.319 91.7615C235.785 91.7615 235.353 91.8633 235.021 92.0815C234.704 92.2997 234.545 92.5907 234.545 92.9834C234.545 93.3326 234.704 93.5944 235.021 93.769C235.223 93.8853 235.656 94.0163 236.319 94.1763L238.035 94.5836C238.785 94.7582 239.348 95.0055 239.723 95.2964C240.299 95.7619 240.602 96.4311 240.602 97.3184C240.602 98.2058 240.256 98.9622 239.564 99.5586C238.872 100.155 237.905 100.461 236.636 100.461C235.367 100.461 234.343 100.17 233.593 99.5732C232.858 98.9913 232.497 98.1767 232.497 97.1584H234.43V97.1438Z" fill="#231F20"/>
<path d="M247.525 90.3214H249.832L253.293 100.184H251.087L250.438 98.1622H246.832L246.169 100.184H244.035L247.525 90.3214ZM247.38 96.4602H249.89L248.65 92.5907L247.38 96.4602Z" fill="#231F20"/>
<path d="M257.202 90.3214H259.35L263.23 97.1875V90.3214H265.133V100.184H263.085L259.105 93.1871V100.184H257.216L257.202 90.3214Z" fill="#231F20"/>
<path d="M276.858 90.3214V92.067H273.931V100.184H271.883V92.067H268.955V90.3214H276.858Z" fill="#231F20"/>
<path d="M282.555 90.3214H284.862L288.323 100.184H286.117L285.468 98.1622H281.877L281.213 100.184H279.079L282.555 90.3214ZM282.425 96.4602H284.934L283.694 92.5907L282.425 96.4602Z" fill="#231F20"/>
<path d="M298.519 90.5832C298.88 90.7432 299.183 90.9614 299.428 91.2669C299.63 91.5142 299.788 91.7906 299.918 92.0961C300.034 92.4016 300.106 92.7362 300.106 93.1289C300.106 93.5944 299.99 94.0599 299.76 94.5109C299.529 94.9618 299.139 95.2818 298.606 95.471C299.053 95.6601 299.37 95.9074 299.558 96.2565C299.745 96.5911 299.832 97.1002 299.832 97.7985V98.4676C299.832 98.9186 299.846 99.224 299.889 99.3841C299.947 99.6459 300.062 99.8205 300.264 99.9514V100.199H298.015C297.957 99.9805 297.914 99.8059 297.885 99.675C297.827 99.3986 297.798 99.1222 297.798 98.8313L297.784 97.9148C297.784 97.2893 297.668 96.8675 297.467 96.6638C297.265 96.4456 296.875 96.3438 296.313 96.3438H294.323V100.213H292.332V90.3505H297.005C297.64 90.3505 298.159 90.4232 298.519 90.5832ZM294.308 92.0379V94.6854H296.5C296.933 94.6854 297.265 94.6272 297.481 94.5254C297.87 94.3363 298.058 93.9726 298.058 93.4053C298.058 92.8089 297.87 92.4016 297.495 92.1979C297.293 92.0815 296.962 92.0234 296.558 92.0234H294.308V92.0379Z" fill="#231F20"/>
<path d="M307.576 90.3214H309.883L313.345 100.184H311.138L310.489 98.1622H306.898L306.235 100.184H304.086L307.576 90.3214ZM307.446 96.4602H309.956L308.715 92.5907L307.446 96.4602Z" fill="#231F20"/>
<path d="M98.9824 26.5335C103.857 26.5335 108.097 29.9374 109.193 34.7379L114.14 56.3981L115.625 64.7044L117.11 56.5727L122.951 26.5335H124.739C130.335 26.5335 135.152 30.4902 136.291 36.018L140.488 56.3836L141.541 64.7044L143.66 56.7182L154.765 12.1321C155.63 8.66992 158.717 6.2406 162.264 6.2406H165.552L149.112 72.3997C148.189 76.1091 144.901 78.6984 141.108 78.6984H136.68L130.436 48.2083L128.604 38.1273L126.773 48.2083L120.528 78.6984H119C113.966 78.6984 109.553 75.3236 108.183 70.4504L95.8674 26.548L98.9824 26.5335Z" fill="url(#paint3_linear_1438_457)"/>
<path d="M180.94 25.3843L173.657 15.9724L174.422 12.8012C175.215 9.52819 172.778 6.35698 169.446 6.31333L167.269 6.28424L151.506 69.6503C150.568 73.4034 152.833 77.2147 156.553 78.1602L158.529 78.6693L170.989 27.0717L178.373 36.7744L179.7 35.7271C182.873 33.2105 183.421 28.5846 180.94 25.3843Z" fill="url(#paint4_linear_1438_457)"/>
<path d="M322.993 31.7412C321.853 28.57 318.061 25.6316 314.513 26.9117L312.681 27.8136L334.213 89.7395C335.482 93.3908 339.462 95.311 343.082 94.0309L345 93.3472L322.993 31.7412Z" fill="url(#paint5_linear_1438_457)"/>
<path d="M220.859 27.7409C224.493 28.9482 227.421 31.1448 229.671 34.3597C231.473 36.9636 232.699 39.7566 233.348 42.7823C233.997 45.808 234.329 48.6738 234.329 51.4086C234.329 58.3474 232.944 64.2098 230.19 69.0248C226.455 75.5127 220.672 78.7567 212.855 78.7567H199.804C194.713 78.7567 190.574 74.5963 190.574 69.4467V26.6062H212.855C216.057 26.6498 218.725 27.0281 220.859 27.7409ZM201.058 35.6543V63.0461C201.058 66.7119 204 69.6794 207.635 69.6794H211.024C216.129 69.6794 219.677 67.1483 221.696 62.0714C222.792 59.293 223.34 55.9763 223.34 52.1359C223.34 46.8263 222.518 42.7532 220.874 39.9166C219.229 37.0799 215.941 35.6543 211.024 35.6543H201.058Z" fill="#231F20"/>
<path d="M298.043 26.5334H302.5C307.158 26.5334 311.297 29.4865 312.854 33.9087L331.458 88.503C332.006 90.5687 332.915 94.8745 326.598 97.7403L324.002 98.6713L313.417 67.9629H294.38L290.876 78.6839H286.968C283.362 78.6839 280.853 75.0908 282.064 71.6723L298.043 26.5334ZM297.337 58.9729H310.561L304.028 38.4619L297.337 58.9729Z" fill="url(#paint6_linear_1438_457)"/>
<path d="M184.445 78.9021H180.897C176.902 78.9021 173.657 76.4583 173.657 73.4471V39.6984H176.513C180.897 39.6984 184.445 42.375 184.445 45.6771V78.9021Z" fill="#231F20"/>
<path d="M274.147 53.3287V55.9617H249.053L249.082 78.7421C241.468 78.7421 238.511 74.4216 238.511 68.7775V26.6062H268.869L271.436 24.3223C273.858 22.0384 277.651 22.1694 279.915 24.6132L281.689 26.5189L273.483 34.1269C272.33 35.2033 270.902 35.7707 269.445 35.8289C269.431 35.8289 269.417 35.8434 269.417 35.8434H249.082V46.9136H267.816C271.306 46.899 274.147 49.7793 274.147 53.3287Z" fill="url(#paint7_linear_1438_457)"/>
<path d="M250.423 69.3157H269.2C273.873 69.3157 277.651 73.1416 277.651 77.8547V78.7566H250.423V69.3157Z" fill="#231F20"/>
<defs>
<linearGradient id="paint0_linear_1438_457" x1="-0.00467106" y1="52.6704" x2="95.8718" y2="52.6704" gradientUnits="userSpaceOnUse">
<stop stop-color="#1C88DC"/>
<stop offset="0.1" stop-color="#0180E9"/>
<stop offset="1" stop-color="#005298"/>
</linearGradient>
<linearGradient id="paint1_linear_1438_457" x1="106.346" y1="120.157" x2="217.394" y2="120.157" gradientUnits="userSpaceOnUse">
<stop stop-color="#1C88DC"/>
<stop offset="0.1" stop-color="#0180E9"/>
<stop offset="1" stop-color="#005298"/>
</linearGradient>
<linearGradient id="paint2_linear_1438_457" x1="228.666" y1="121.914" x2="306.813" y2="121.914" gradientUnits="userSpaceOnUse">
<stop stop-color="#1C88DC"/>
<stop offset="0.1" stop-color="#0180E9"/>
<stop offset="1" stop-color="#005298"/>
</linearGradient>
<linearGradient id="paint3_linear_1438_457" x1="95.8613" y1="42.454" x2="165.538" y2="42.454" gradientUnits="userSpaceOnUse">
<stop stop-color="#1C88DC"/>
<stop offset="0.1" stop-color="#0180E9"/>
<stop offset="1" stop-color="#005298"/>
</linearGradient>
<linearGradient id="paint4_linear_1438_457" x1="151.292" y1="42.4732" x2="182.495" y2="42.4732" gradientUnits="userSpaceOnUse">
<stop stop-color="#1C88DC"/>
<stop offset="0.1" stop-color="#0180E9"/>
<stop offset="1" stop-color="#005298"/>
</linearGradient>
<linearGradient id="paint5_linear_1438_457" x1="319.083" y1="67.0782" x2="338.192" y2="54.5384" gradientUnits="userSpaceOnUse">
<stop stop-color="#1C88DC"/>
<stop offset="0.1" stop-color="#0180E9"/>
<stop offset="1" stop-color="#005298"/>
</linearGradient>
<linearGradient id="paint6_linear_1438_457" x1="281.774" y1="62.5974" x2="331.847" y2="62.5974" gradientUnits="userSpaceOnUse">
<stop stop-color="#1C88DC"/>
<stop offset="0.1" stop-color="#0180E9"/>
<stop offset="1" stop-color="#005298"/>
</linearGradient>
<linearGradient id="paint7_linear_1438_457" x1="238.499" y1="50.71" x2="281.67" y2="50.71" gradientUnits="userSpaceOnUse">
<stop stop-color="#1C88DC"/>
<stop offset="0.1" stop-color="#0180E9"/>
<stop offset="1" stop-color="#005298"/>
</linearGradient>
</defs>
</svg>
